<svg xmlns="http://www.w3.org/2000/svg" width="16" height="40" viewBox="0 0 16 40" fill="none">
  <path d="M14.7841 19.765C14.8542 19.6939 14.9094 19.6095 14.9464 19.5168C14.9835 19.4241 15.0017 19.325 14.9999 19.2252C14.9981 19.1253 14.9764 19.0269 14.9361 18.9356C14.8958 18.8443 14.8377 18.7619 14.7651 18.6933C14.6926 18.6248 14.6071 18.5714 14.5136 18.5363C14.4201 18.5012 14.3206 18.4852 14.2209 18.489C14.1211 18.4929 14.0232 18.5167 13.9327 18.5589C13.8423 18.6011 13.7612 18.661 13.6941 18.735L8.73914 23.974L8.73914 1.24996C8.73914 1.05105 8.66012 0.860279 8.51947 0.719627C8.37882 0.578976 8.18805 0.499958 7.98914 0.499958C7.79023 0.499958 7.59946 0.578976 7.45881 0.719627C7.31816 0.860279 7.23914 1.05105 7.23914 1.24996L7.23914 23.976L2.28214 18.735C2.21513 18.661 2.13402 18.6011 2.04357 18.5589C1.95312 18.5167 1.85515 18.4929 1.7554 18.489C1.65565 18.4852 1.55614 18.5012 1.46268 18.5363C1.36923 18.5714 1.28372 18.6248 1.21117 18.6933C1.13861 18.7619 1.08048 18.8443 1.04016 18.9356C0.999848 19.0269 0.978171 19.1253 0.976399 19.2252C0.974627 19.325 0.992797 19.4241 1.02984 19.5168C1.06689 19.6095 1.12207 19.6939 1.19214 19.765L7.26214 26.183C7.41281 26.3423 7.61168 26.4477 7.82814 26.483C7.93628 26.5065 8.04829 26.5058 8.15614 26.481C8.36949 26.4446 8.56529 26.3401 8.71414 26.183L14.7841 19.765Z" fill="#BCA68A"/>
</svg>