<svg xmlns="http://www.w3.org/2000/svg" width="56" height="56" viewBox="0 0 56 56" fill="none">
  <rect x="0.5" y="0.5" width="55" height="55" rx="7.5" fill="#00474D"/>
  <rect x="0.5" y="0.5" width="55" height="55" rx="7.5" stroke="#008E97"/>
  <path d="M23.3333 26.8333C23.3332 27.2976 23.1486 27.7428 22.8202 28.071C22.4918 28.3992 22.0464 28.5835 21.5822 28.5833C21.1179 28.5832 20.6727 28.3986 20.3445 28.0702C20.0163 27.7418 19.832 27.2964 19.8322 26.8322C19.8323 26.3679 20.0169 25.9227 20.3453 25.5945C20.6737 25.2663 21.119 25.082 21.5833 25.0822C22.0476 25.0823 22.4928 25.2669 22.821 25.5953C23.1492 25.9237 23.3335 26.369 23.3333 26.8333ZM21.5833 19.25C21.3534 19.2501 21.1258 19.2954 20.9135 19.3835C20.7011 19.4715 20.5082 19.6005 20.3457 19.7631C20.1832 19.9258 20.0543 20.1188 19.9664 20.3312C19.8785 20.5436 19.8333 20.7713 19.8333 21.0012C19.8334 21.2311 19.8788 21.4587 19.9668 21.671C20.0549 21.8834 20.1839 22.0763 20.3465 22.2388C20.5091 22.4013 20.7021 22.5302 20.9145 22.6181C21.127 22.706 21.3546 22.7512 21.5845 22.7512C22.0488 22.751 22.494 22.5664 22.8222 22.238C23.1504 21.9096 23.3347 21.4643 23.3345 21C23.3343 20.5357 23.1498 20.0905 22.8214 19.7623C22.4929 19.4341 22.0476 19.2498 21.5833 19.25ZM21.5833 30.9167C21.3534 30.9167 21.1258 30.9621 20.9135 31.0501C20.7011 31.1382 20.5082 31.2672 20.3457 31.4298C20.1832 31.5924 20.0543 31.7854 19.9664 31.9979C19.8785 32.2103 19.8333 32.4379 19.8333 32.6678C19.8334 32.8977 19.8788 33.1253 19.9668 33.3377C20.0549 33.5501 20.1839 33.743 20.3465 33.9055C20.5091 34.068 20.7021 34.1969 20.9145 34.2848C21.127 34.3727 21.3546 34.4179 21.5845 34.4178C22.0488 34.4177 22.494 34.2331 22.8222 33.9047C23.1504 33.5763 23.3347 33.1309 23.3345 32.6667C23.3343 32.2024 23.1498 31.7572 22.8214 31.429C22.4929 31.1008 22.0476 30.9165 21.5833 30.9167ZM38.5 14H17.5C15.5703 14 14 15.5703 14 17.5V40.8333H26.0412C25.3984 40.1238 24.8419 39.3405 24.3833 38.5H16.3333V17.5C16.3333 16.8572 16.8572 16.3333 17.5 16.3333H38.5C39.1428 16.3333 39.6667 16.8572 39.6667 17.5V30.9528C40.5405 31.5573 41.3258 32.2806 42 33.1018V17.5C42 15.5703 40.4297 14 38.5 14ZM36.1667 19.8333H25.6667V22.1667H36.1667V19.8333ZM25.6667 28H36.1667V25.6667H25.6667V28ZM41.2848 36.2122L41.5648 36.75L41.2848 37.2878C40.7108 38.3927 38.4767 42 33.8333 42C29.19 42 26.9547 38.3927 26.3807 37.2878L26.1018 36.75L26.3807 36.2133C26.9535 35.1073 29.1842 31.5 33.8333 31.5C38.4825 31.5 40.712 35.1073 41.2848 36.2122ZM38.9037 36.75C38.1652 35.5892 36.5925 33.8333 33.8322 33.8333C31.0718 33.8333 29.498 35.5892 28.7607 36.75C29.498 37.9108 31.0707 39.6667 33.8322 39.6667C36.5937 39.6667 38.1652 37.9108 38.9037 36.75ZM33.8322 35C33.6023 35.0001 33.3747 35.0454 33.1623 35.1335C32.9499 35.2215 32.757 35.3505 32.5945 35.5131C32.432 35.6758 32.3031 35.8688 32.2152 36.0812C32.1273 36.2936 32.0821 36.5213 32.0822 36.7512C32.0822 36.9811 32.1276 37.2087 32.2156 37.421C32.3037 37.6334 32.4327 37.8263 32.5953 37.9888C32.7579 38.1513 32.9509 38.2802 33.1634 38.3681C33.3758 38.456 33.6034 38.5012 33.8333 38.5012C34.2976 38.5012 34.7429 38.3167 35.0712 37.9884C35.3995 37.6601 35.5839 37.2149 35.5839 36.7506C35.5839 36.2863 35.3995 35.841 35.0712 35.5127C34.7429 35.1844 34.2964 35 33.8322 35Z" fill="#F5F5F5"/>
</svg>