<svg xmlns="http://www.w3.org/2000/svg" width="56" height="56" viewBox="0 0 56 56" fill="none">
  <rect x="0.5" y="0.5" width="55" height="55" rx="7.5" fill="#00474D"/>
  <rect x="0.5" y="0.5" width="55" height="55" rx="7.5" stroke="#008E97"/>
  <path d="M26.8333 21H29.1667C30.7755 21 32.0833 19.6922 32.0833 18.0833V16.9167C32.0833 15.3078 30.7755 14 29.1667 14H26.8333C26.0601 14.0009 25.3187 14.3085 24.772 14.8553C24.2252 15.4021 23.9176 16.1434 23.9167 16.9167V18.0833C23.9167 19.6922 25.2257 21 26.8333 21ZM26.25 16.9167C26.25 16.762 26.3115 16.6136 26.4209 16.5042C26.5302 16.3948 26.6786 16.3333 26.8333 16.3333H29.1667C29.4875 16.3333 29.75 16.5958 29.75 16.9167V18.0833C29.75 18.4042 29.4875 18.6667 29.1667 18.6667H26.8333C26.6786 18.6667 26.5302 18.6052 26.4209 18.4958C26.3115 18.3864 26.25 18.238 26.25 18.0833V16.9167ZM29.1667 35H26.8333C26.0601 35.0009 25.3187 35.3085 24.772 35.8553C24.2252 36.4021 23.9176 37.1434 23.9167 37.9167V39.0833C23.9167 40.6922 25.2257 42 26.8333 42H29.1667C30.7755 42 32.0833 40.6922 32.0833 39.0833V37.9167C32.0833 36.3078 30.7755 35 29.1667 35ZM29.75 39.0833C29.75 39.4042 29.4875 39.6667 29.1667 39.6667H26.8333C26.6786 39.6667 26.5302 39.6052 26.4209 39.4958C26.3115 39.3864 26.25 39.238 26.25 39.0833V37.9167C26.25 37.762 26.3115 37.6136 26.4209 37.5042C26.5302 37.3948 26.6786 37.3333 26.8333 37.3333H29.1667C29.4875 37.3333 29.75 37.5958 29.75 37.9167V39.0833ZM39.0833 35H36.75C35.9766 35.0006 35.2351 35.3081 34.6883 35.855C34.1414 36.4018 33.834 37.1433 33.8333 37.9167V39.0833C33.8333 40.6922 35.1412 42 36.75 42H39.0833C40.6922 42 42 40.6922 42 39.0833V37.9167C42 36.3078 40.6922 35 39.0833 35ZM39.6667 39.0833C39.6667 39.4042 39.4042 39.6667 39.0833 39.6667H36.75C36.5954 39.6664 36.4472 39.6048 36.3379 39.4955C36.2285 39.3861 36.167 39.2379 36.1667 39.0833V37.9167C36.1667 37.5958 36.4292 37.3333 36.75 37.3333H39.0833C39.4042 37.3333 39.6667 37.5958 39.6667 37.9167V39.0833ZM19.25 35H16.9167C16.1434 35.0009 15.4021 35.3085 14.8553 35.8553C14.3085 36.4021 14.0009 37.1434 14 37.9167V39.0833C14 40.6922 15.309 42 16.9167 42H19.25C20.8577 42 22.1667 40.6922 22.1667 39.0833V37.9167C22.1667 36.3078 20.8577 35 19.25 35ZM19.8333 39.0833C19.8333 39.238 19.7719 39.3864 19.6625 39.4958C19.5531 39.6052 19.4047 39.6667 19.25 39.6667H16.9167C16.762 39.6667 16.6136 39.6052 16.5042 39.4958C16.3948 39.3864 16.3333 39.238 16.3333 39.0833V37.9167C16.3333 37.762 16.3948 37.6136 16.5042 37.5042C16.6136 37.3948 16.762 37.3333 16.9167 37.3333H19.25C19.4047 37.3333 19.5531 37.3948 19.6625 37.5042C19.7719 37.6136 19.8333 37.762 19.8333 37.9167V39.0833ZM16.9167 32.0833V30.9167C16.9167 28.665 18.7483 26.8333 21 26.8333H26.8333V23.9167C26.8333 23.6072 26.9562 23.3105 27.175 23.0917C27.3938 22.8729 27.6906 22.75 28 22.75C28.3094 22.75 28.6062 22.8729 28.825 23.0917C29.0437 23.3105 29.1667 23.6072 29.1667 23.9167V26.8333H35C37.2517 26.8333 39.0833 28.665 39.0833 30.9167V32.0833C39.0833 32.3928 38.9604 32.6895 38.7416 32.9083C38.5228 33.1271 38.2261 33.25 37.9167 33.25C37.6072 33.25 37.3105 33.1271 37.0917 32.9083C36.8729 32.6895 36.75 32.3928 36.75 32.0833V30.9167C36.75 29.9518 35.9648 29.1667 35 29.1667H29.1667V32.0833C29.1667 32.3928 29.0437 32.6895 28.825 32.9083C28.6062 33.1271 28.3094 33.25 28 33.25C27.6906 33.25 27.3938 33.1271 27.175 32.9083C26.9562 32.6895 26.8333 32.3928 26.8333 32.0833V29.1667H21C20.0352 29.1667 19.25 29.9518 19.25 30.9167V32.0833C19.25 32.3928 19.1271 32.6895 18.9083 32.9083C18.6895 33.1271 18.3928 33.25 18.0833 33.25C17.7739 33.25 17.4772 33.1271 17.2584 32.9083C17.0396 32.6895 16.9167 32.3928 16.9167 32.0833Z" fill="#F5F5F5"/>
</svg>