<svg xmlns="http://www.w3.org/2000/svg" width="56" height="56" viewBox="0 0 56 56" fill="none">
  <rect x="0.5" y="0.5" width="55" height="55" rx="7.5" fill="#00474D"/>
  <rect x="0.5" y="0.5" width="55" height="55" rx="7.5" stroke="#008E97"/>
  <path d="M30.3729 25.3644C31.0624 22.7943 33.4447 21 36.1666 21C38.8884 21 41.2707 22.7943 41.9602 25.3644C41.9999 25.5124 42.01 25.6668 41.99 25.8187C41.9701 25.9706 41.9204 26.1171 41.8438 26.2499C41.7672 26.3826 41.6652 26.4989 41.5436 26.5922C41.4221 26.6855 41.2834 26.7539 41.1354 26.7936C40.9874 26.8333 40.833 26.8434 40.6811 26.8234C40.5292 26.8035 40.3827 26.7538 40.25 26.6772C40.1173 26.6006 40.0009 26.4986 39.9076 26.3771C39.8143 26.2555 39.7459 26.1168 39.7062 25.9688C39.2909 24.4171 37.8349 23.3333 36.1666 23.3333C34.4982 23.3333 33.0422 24.4171 32.6269 25.9688C32.5878 26.1171 32.5197 26.2562 32.4265 26.3781C32.3334 26.5 32.217 26.6022 32.0842 26.6789C31.9513 26.7556 31.8046 26.8052 31.6524 26.8249C31.5003 26.8446 31.3458 26.8339 31.1977 26.7936C31.0497 26.7539 30.911 26.6855 30.7894 26.5922C30.6679 26.4989 30.5659 26.3826 30.4893 26.2499C30.4127 26.1172 30.363 25.9707 30.343 25.8187C30.3231 25.6668 30.3332 25.5124 30.3729 25.3644ZM36.1666 19.8333C37.7754 19.8333 39.0832 18.5255 39.0832 16.9167C39.0832 15.3078 37.7754 14 36.1666 14C34.5577 14 33.2499 15.3078 33.2499 16.9167C33.2499 18.5255 34.5577 19.8333 36.1666 19.8333ZM36.1666 29.1666C34.5577 29.1666 33.2499 30.4744 33.2499 32.0832C33.2499 33.6921 34.5577 34.9999 36.1666 34.9999C37.7754 34.9999 39.0832 33.6921 39.0832 32.0832C39.0832 30.4744 37.7754 29.1666 36.1666 29.1666ZM36.1666 36.1666C33.4447 36.1666 31.0624 37.9609 30.3729 40.531C30.2928 40.8299 30.3347 41.1484 30.4893 41.4164C30.644 41.6845 30.8989 41.8801 31.1977 41.9602C31.4966 42.0403 31.8151 41.9985 32.0832 41.8438C32.3512 41.6891 32.5468 41.4343 32.6269 41.1354C33.0422 39.5837 34.4982 38.4999 36.1666 38.4999C37.8349 38.4999 39.2909 39.5837 39.7062 41.1354C39.7459 41.2834 39.8143 41.4221 39.9076 41.5436C40.0009 41.6652 40.1173 41.7672 40.25 41.8438C40.3827 41.9204 40.5292 41.9701 40.6811 41.99C40.833 42.01 40.9874 41.9999 41.1354 41.9602C41.2834 41.9205 41.4221 41.8521 41.5436 41.7588C41.6652 41.6655 41.7672 41.5491 41.8438 41.4164C41.9204 41.2837 41.9701 41.1372 41.99 40.9853C42.01 40.8334 41.9999 40.679 41.9602 40.531C41.2707 37.9609 38.8884 36.1666 36.1666 36.1666ZM27.1133 34.3629L23.5188 30.6844C23.4122 30.5725 23.2845 30.4829 23.1431 30.4208C23.0016 30.3586 22.8492 30.3252 22.6948 30.3224C22.5403 30.3197 22.3868 30.3476 22.2432 30.4046C22.0996 30.4617 21.9688 30.5467 21.8583 30.6547C21.7478 30.7627 21.6599 30.8916 21.5996 31.0338C21.5394 31.1761 21.5079 31.3289 21.5072 31.4834C21.5065 31.6379 21.5365 31.791 21.5954 31.9338C21.6543 32.0767 21.741 32.2064 21.8505 32.3154L24.4731 34.9999H19.8321C17.9025 34.9999 16.3322 33.4296 16.3322 31.4999V24.4999C16.3322 22.5703 17.9025 21 19.8321 21H25.6654C25.9749 21 26.2716 20.877 26.4904 20.6583C26.7092 20.4395 26.8321 20.1427 26.8321 19.8333C26.8321 19.5239 26.7092 19.2271 26.4904 19.0084C26.2716 18.7896 25.9749 18.6666 25.6654 18.6666H19.8321C18.2857 18.6685 16.8032 19.2837 15.7098 20.3773C14.6165 21.4709 14.0015 22.9535 14 24.4999V31.4999C14 34.7164 16.6168 37.3332 19.8333 37.3332H24.4918L21.8516 40.0177C21.7445 40.1272 21.6601 40.2568 21.603 40.399C21.546 40.5412 21.5176 40.6932 21.5193 40.8464C21.521 40.9996 21.5529 41.1509 21.6132 41.2918C21.6734 41.4326 21.7608 41.5603 21.8703 41.6674C21.9798 41.7745 22.1094 41.8589 22.2516 41.9159C22.3938 41.973 22.5458 42.0014 22.699 41.9997C22.8522 41.9979 23.0035 41.9661 23.1444 41.9058C23.2852 41.8456 23.4129 41.7582 23.52 41.6487L27.1168 37.9702C27.4563 37.6995 27.7083 37.3565 27.8331 37.0089C28.0524 36.487 28.0591 35.9 27.8518 35.3732C27.7049 34.9747 27.4495 34.6251 27.1144 34.3641L27.1133 34.3629Z" fill="#F5F5F5"/>
</svg>