<svg width="1440" height="82" viewBox="0 0 1440 82" fill="none" xmlns="http://www.w3.org/2000/svg">
<path fill-rule="evenodd" clip-rule="evenodd" d="M-1.52588e-05 76.2012L-1.83228e-05 6.1038C35.3401 44.0104 38.7988 61.7936 -1.52588e-05 76.2012ZM70.0975 6.1038L70.0975 76.2012C34.7579 38.2946 31.2992 20.5114 70.0975 6.1038Z" fill="#F5F5F5" fill-opacity="0.3"/>
<path fill-rule="evenodd" clip-rule="evenodd" d="M146.195 76.2015L76.0976 76.2015C114.004 40.8614 131.787 37.4027 146.195 76.2015ZM76.0976 6.10401L146.195 6.104C108.288 41.4436 90.5052 44.9023 76.0976 6.10401Z" fill="#F5F5F5" fill-opacity="0.3"/>
<path fill-rule="evenodd" clip-rule="evenodd" d="M152.195 76.2012L152.195 6.1038C187.535 44.0104 190.994 61.7936 152.195 76.2012ZM222.293 6.1038L222.293 76.2012C186.953 38.2946 183.494 20.5114 222.293 6.1038Z" fill="#F5F5F5" fill-opacity="0.3"/>
<path fill-rule="evenodd" clip-rule="evenodd" d="M298.39 76.2015L228.293 76.2015C266.199 40.8614 283.983 37.4027 298.39 76.2015ZM228.293 6.10401L298.39 6.104C260.484 41.4436 242.7 44.9023 228.293 6.10401Z" fill="#F5F5F5" fill-opacity="0.3"/>
<path fill-rule="evenodd" clip-rule="evenodd" d="M304.391 76.2012L304.39 6.1038C339.731 44.0104 343.189 61.7936 304.391 76.2012ZM374.488 6.1038L374.488 76.2012C339.148 38.2946 335.69 20.5114 374.488 6.1038Z" fill="#F5F5F5" fill-opacity="0.3"/>
<path fill-rule="evenodd" clip-rule="evenodd" d="M450.586 76.2015L380.488 76.2015C418.395 40.8614 436.178 37.4027 450.586 76.2015ZM380.488 6.10401L450.585 6.104C412.679 41.4436 394.896 44.9023 380.488 6.10401Z" fill="#F5F5F5" fill-opacity="0.3"/>
<path fill-rule="evenodd" clip-rule="evenodd" d="M456.586 76.2012L456.585 6.1038C491.926 44.0104 495.384 61.7936 456.586 76.2012ZM526.683 6.1038L526.683 76.2012C491.343 38.2946 487.885 20.5114 526.683 6.1038Z" fill="#F5F5F5" fill-opacity="0.3"/>
<path fill-rule="evenodd" clip-rule="evenodd" d="M602.78 76.2015L532.683 76.2015C570.59 40.8614 588.373 37.4027 602.78 76.2015ZM532.683 6.10401L602.78 6.104C564.874 41.4436 547.091 44.9023 532.683 6.10401Z" fill="#F5F5F5" fill-opacity="0.3"/>
<path fill-rule="evenodd" clip-rule="evenodd" d="M608.781 76.2012L608.78 6.1038C644.121 44.0104 647.579 61.7936 608.781 76.2012ZM678.878 6.1038L678.878 76.2012C643.538 38.2946 640.08 20.5114 678.878 6.1038Z" fill="#F5F5F5" fill-opacity="0.3"/>
<path fill-rule="evenodd" clip-rule="evenodd" d="M754.975 76.2015L684.878 76.2015C722.785 40.8614 740.568 37.4027 754.975 76.2015ZM684.878 6.10401L754.975 6.104C717.069 41.4436 699.286 44.9023 684.878 6.10401Z" fill="#F5F5F5" fill-opacity="0.3"/>
<path fill-rule="evenodd" clip-rule="evenodd" d="M760.976 76.2012L760.976 6.1038C796.316 44.0104 799.774 61.7936 760.976 76.2012ZM831.073 6.1038L831.073 76.2012C795.734 38.2946 792.275 20.5114 831.073 6.1038Z" fill="#F5F5F5" fill-opacity="0.3"/>
<path fill-rule="evenodd" clip-rule="evenodd" d="M907.171 76.2015L837.073 76.2015C874.98 40.8614 892.763 37.4027 907.171 76.2015ZM837.073 6.10401L907.171 6.104C869.264 41.4436 851.481 44.9023 837.073 6.10401Z" fill="#F5F5F5" fill-opacity="0.3"/>
<path fill-rule="evenodd" clip-rule="evenodd" d="M913.171 76.2012L913.171 6.1038C948.511 44.0104 951.97 61.7936 913.171 76.2012ZM983.268 6.1038L983.268 76.2012C947.929 38.2946 944.47 20.5114 983.268 6.1038Z" fill="#F5F5F5" fill-opacity="0.3"/>
<path fill-rule="evenodd" clip-rule="evenodd" d="M1059.37 76.2015L989.268 76.2015C1027.17 40.8614 1044.96 37.4027 1059.37 76.2015ZM989.268 6.10401L1059.37 6.104C1021.46 41.4436 1003.68 44.9023 989.268 6.10401Z" fill="#F5F5F5" fill-opacity="0.3"/>
<path fill-rule="evenodd" clip-rule="evenodd" d="M1065.37 76.2012L1065.37 6.1038C1100.71 44.0104 1104.16 61.7936 1065.37 76.2012ZM1135.46 6.1038L1135.46 76.2012C1100.12 38.2946 1096.66 20.5114 1135.46 6.1038Z" fill="#F5F5F5" fill-opacity="0.3"/>
<path fill-rule="evenodd" clip-rule="evenodd" d="M1211.56 76.2015L1141.46 76.2015C1179.37 40.8614 1197.15 37.4027 1211.56 76.2015ZM1141.46 6.10401L1211.56 6.104C1173.65 41.4436 1155.87 44.9023 1141.46 6.10401Z" fill="#F5F5F5" fill-opacity="0.3"/>
<path fill-rule="evenodd" clip-rule="evenodd" d="M1217.56 76.2012L1217.56 6.1038C1252.9 44.0104 1256.36 61.7936 1217.56 76.2012ZM1287.66 6.1038L1287.66 76.2012C1252.32 38.2946 1248.86 20.5114 1287.66 6.1038Z" fill="#F5F5F5" fill-opacity="0.3"/>
<path fill-rule="evenodd" clip-rule="evenodd" d="M1363.76 76.2015L1293.66 76.2015C1331.57 40.8614 1349.35 37.4027 1363.76 76.2015ZM1293.66 6.10401L1363.76 6.104C1325.85 41.4436 1308.07 44.9023 1293.66 6.10401Z" fill="#F5F5F5" fill-opacity="0.3"/>
<path fill-rule="evenodd" clip-rule="evenodd" d="M1369.76 76.2012L1369.76 6.1038C1405.1 44.0104 1408.56 61.7936 1369.76 76.2012ZM1439.85 6.1038L1439.85 76.2012C1404.51 38.2946 1401.06 20.5114 1439.85 6.1038Z" fill="#F5F5F5" fill-opacity="0.3"/>
</svg>
