<svg xmlns="http://www.w3.org/2000/svg" width="172" height="20" viewBox="0 0 172 20" fill="none">
  <path fill-rule="evenodd" clip-rule="evenodd" d="M0.543213 1.33514e-05H20.0066C9.48134 9.81257 4.54354 10.7727 0.543213 1.33514e-05ZM20.0066 19.4633H0.543213C11.0685 9.65099 16.0062 8.69055 20.0066 19.4633Z" fill="#BCA68A"/>
  <path d="M27.0742 2.94524H29.5579V14.372H35.6863V16.518H27.0742V2.94524ZM112.294 7.13573C112.066 6.65551 111.78 6.22641 111.428 5.84445C111.081 5.45965 110.686 5.13619 110.247 4.86697C109.807 4.59434 109.334 4.38647 108.826 4.23993C108.315 4.09709 107.79 4.02184 107.242 4.02184C106.458 4.02184 105.722 4.16866 105.031 4.46173C104.342 4.75423 103.743 5.15636 103.225 5.66725C102.711 6.18183 102.305 6.78473 102.009 7.47652C101.712 8.16802 101.562 8.91775 101.562 9.72143C101.562 10.5186 101.712 11.2649 102.009 11.9564C102.305 12.6479 102.711 13.2511 103.225 13.7586C103.743 14.2663 104.342 14.6685 105.031 14.9612C105.722 15.2543 106.458 15.4009 107.242 15.4009C107.783 15.4009 108.305 15.3293 108.815 15.1862C109.324 15.043 109.797 14.8386 110.236 14.5727C110.676 14.3069 111.071 13.9801 111.418 13.5984C111.769 13.2167 112.055 12.7845 112.284 12.3074H113.919C113.667 13.0125 113.309 13.6393 112.846 14.1911C112.386 14.7431 111.858 15.2131 111.265 15.5948C110.672 15.9765 110.032 16.2693 109.34 16.474C108.645 16.6745 107.947 16.777 107.242 16.777C106.577 16.777 105.937 16.6953 105.317 16.5286C104.697 16.3613 104.121 16.1264 103.586 15.8197C103.048 15.513 102.561 15.1484 102.118 14.7227C101.675 14.2967 101.297 13.8199 100.983 13.2954C100.673 12.7675 100.428 12.2049 100.258 11.6023C100.084 10.9991 99.9954 10.372 99.9954 9.72143C99.9954 9.06428 100.084 8.43042 100.258 7.82383C100.428 7.21752 100.673 6.65211 100.983 6.1273C101.297 5.60278 101.675 5.12568 102.118 4.69999C102.561 4.27401 103.048 3.90994 103.586 3.60323C104.121 3.29625 104.697 3.06111 105.317 2.89412C105.937 2.72742 106.577 2.64535 107.242 2.64535C107.947 2.64535 108.645 2.74446 109.334 2.94524C110.022 3.14318 110.665 3.43597 111.262 3.81764C111.854 4.19932 112.386 4.66932 112.846 5.22451C113.309 5.77999 113.667 6.41697 113.919 7.13573H112.294ZM142.739 3.71229H144.292V5.33044H142.739V3.71229ZM144.292 5.34123V16.518H142.739V6.08698C143.181 5.68542 143.699 5.43693 144.292 5.34123ZM115.79 11.4384C115.79 10.6924 115.926 9.99405 116.195 9.34684C116.464 8.69964 116.839 8.13053 117.323 7.64321C117.806 7.15987 118.379 6.7782 119.044 6.49876C119.711 6.21931 120.437 6.07618 121.22 6.07618C121.68 6.07618 122.113 6.13071 122.521 6.23635C122.934 6.3454 123.312 6.48853 123.666 6.66574C124.017 6.84607 124.341 7.06105 124.63 7.30613C124.92 7.55121 125.169 7.81389 125.383 8.09305L125.786 6.35903H126.831V16.518H125.786L125.373 14.7909C125.158 15.0703 124.91 15.3327 124.62 15.5744C124.331 15.8163 124.007 16.0307 123.653 16.2148C123.295 16.3957 122.913 16.5385 122.505 16.6441C122.092 16.7461 121.663 16.7972 121.21 16.7972C120.427 16.7972 119.701 16.6575 119.04 16.3783C118.379 16.0989 117.806 15.7175 117.323 15.237C116.839 14.7534 116.464 14.184 116.195 13.5339C115.926 12.883 115.79 12.185 115.79 11.4384ZM117.33 11.4384C117.33 12.0177 117.432 12.5491 117.643 13.0395C117.851 13.5305 118.137 13.9525 118.502 14.3069C118.863 14.6648 119.289 14.9442 119.779 15.145C120.266 15.3495 120.788 15.4483 121.34 15.4483C121.898 15.4483 122.423 15.3495 122.907 15.1518C123.394 14.951 123.82 14.6716 124.184 14.3138C124.551 13.9525 124.838 13.5305 125.05 13.0395C125.257 12.5491 125.363 12.0177 125.363 11.4384C125.363 10.8665 125.257 10.3348 125.043 9.8441C124.831 9.35678 124.542 8.9345 124.181 8.57696C123.816 8.22255 123.39 7.94311 122.903 7.73892C122.413 7.53786 121.891 7.43563 121.34 7.43563C120.781 7.43563 120.256 7.53786 119.769 7.73892C119.278 7.94311 118.856 8.22255 118.495 8.57696C118.137 8.9345 117.851 9.35678 117.643 9.8441C117.432 10.3348 117.33 10.8665 117.33 11.4384ZM140.565 11.4384C140.565 12.185 140.432 12.883 140.163 13.5371C139.894 14.1911 139.519 14.7568 139.039 15.2404C138.562 15.7243 137.993 16.106 137.332 16.3851C136.674 16.6646 135.952 16.8043 135.168 16.8043C134.716 16.8043 134.29 16.7566 133.891 16.6581C133.489 16.5624 133.114 16.4294 132.767 16.2593C132.416 16.089 132.099 15.8845 131.813 15.6462C131.527 15.4043 131.274 15.145 131.053 14.8658V20H129.517V6.35222H130.517L130.944 8.12059C131.159 7.84115 131.407 7.57534 131.697 7.32657C131.987 7.07808 132.31 6.8597 132.668 6.67255C133.022 6.48512 133.407 6.33859 133.823 6.23294C134.242 6.1273 134.678 6.07306 135.138 6.07306C135.921 6.07306 136.647 6.2125 137.308 6.48853C137.969 6.76456 138.541 7.14596 139.025 7.63328C139.505 8.11691 139.883 8.68572 140.156 9.34003C140.428 9.99405 140.565 10.6924 140.565 11.4384ZM139.018 11.4421C139.018 10.8625 138.916 10.328 138.705 9.83729C138.497 9.34684 138.211 8.92427 137.846 8.56674C137.485 8.21232 137.059 7.92976 136.575 7.72869C136.088 7.52422 135.567 7.42199 135.008 7.42199C134.457 7.42199 133.935 7.52422 133.445 7.72869C132.957 7.92976 132.531 8.21232 132.167 8.56674C131.806 8.92427 131.52 9.34684 131.308 9.83729C131.101 10.328 130.995 10.8625 130.995 11.4421C130.995 12.0177 131.101 12.5491 131.308 13.0395C131.52 13.5305 131.806 13.9525 132.174 14.3106C132.539 14.6648 132.964 14.9479 133.451 15.1484C133.935 15.3529 134.457 15.4548 135.019 15.4548C135.577 15.4548 136.099 15.3529 136.586 15.1484C137.069 14.9479 137.492 14.6648 137.853 14.3106C138.211 13.9525 138.497 13.5305 138.705 13.0395C138.916 12.5491 139.018 12.0177 139.018 11.4421ZM146.332 3.37463H147.867V6.35903H151.529L150.756 7.70825H147.867V12.6786C147.867 13.2099 147.929 13.6529 148.051 14.0005C148.174 14.351 148.338 14.629 148.545 14.8351C148.751 15.0413 148.991 15.1847 149.263 15.2643C149.535 15.3435 149.819 15.3838 150.112 15.3838H151.241L151.236 16.6816H149.983C149.466 16.6816 148.984 16.6166 148.541 16.4874C148.099 16.3585 147.713 16.1372 147.386 15.8265C147.062 15.5173 146.807 15.1075 146.62 14.6C146.433 14.0925 146.341 13.4553 146.34 12.6888L146.332 3.37463ZM152.496 11.4384C152.496 10.6924 152.632 9.99376 152.901 9.34684C153.17 8.69964 153.545 8.1294 154.029 7.64321C154.512 7.15902 155.085 6.77706 155.75 6.49876C156.417 6.21903 157.143 6.07618 157.927 6.07618C158.386 6.07618 158.82 6.12958 159.228 6.23635C159.64 6.34398 160.02 6.48683 160.372 6.66574C160.724 6.84408 161.047 7.06105 161.337 7.30613C161.626 7.55121 161.875 7.81389 162.09 8.09305L162.492 6.35903H163.538V16.518H162.491L162.08 14.7909C161.865 15.0703 161.616 15.3327 161.327 15.5744C161.037 15.816 160.714 16.033 160.359 16.2148C160.002 16.3971 159.62 16.5408 159.211 16.6441C158.799 16.7478 158.369 16.7972 157.916 16.7972C157.133 16.7972 156.407 16.6578 155.746 16.3783C155.085 16.0992 154.512 15.7181 154.029 15.237C153.545 14.7542 153.17 14.184 152.901 13.5339C152.632 12.8833 152.496 12.185 152.496 11.4384ZM154.036 11.4384C154.036 12.0177 154.14 12.5488 154.349 13.0395C154.558 13.53 154.845 13.9514 155.208 14.3069C155.57 14.6628 155.996 14.9422 156.486 15.145C156.973 15.3472 157.494 15.4483 158.046 15.4483C158.604 15.4483 159.129 15.35 159.613 15.1518C160.1 14.9519 160.526 14.6716 160.89 14.3138C161.258 13.9528 161.546 13.5305 161.756 13.0395C161.965 12.5496 162.069 12.0177 162.069 11.4384C162.069 10.8665 161.962 10.3348 161.749 9.8441C161.537 9.35735 161.249 8.9328 160.887 8.57696C160.524 8.22113 160.097 7.94112 159.609 7.73892C159.12 7.53615 158.598 7.43563 158.046 7.43563C157.487 7.43563 156.962 7.53729 156.475 7.73892C155.984 7.94225 155.561 8.22113 155.201 8.57696C154.842 8.9328 154.558 9.35735 154.349 9.8441C154.139 10.3348 154.036 10.8665 154.036 11.4384ZM166.492 2.4548H168.028V16.518H166.492V2.4548ZM37.894 3.18095H40.3403V5.26824H37.894V3.18095ZM40.3403 5.27563V16.518H37.894V6.51466C38.4387 5.83621 39.5457 5.36281 40.3403 5.27563ZM53.4735 6.2568L49.0993 16.518H46.9052L42.5545 6.2568H45.1473L47.992 13.2988H48.0125L50.8571 6.2568H53.4735ZM62.287 8.37249L61.0775 8.38271C60.6041 8.38271 60.1781 8.45116 59.8001 8.5869C59.4219 8.7235 59.0984 8.92769 58.8258 9.19691C58.5566 9.46612 58.3518 9.80321 58.209 10.2053C58.0661 10.6072 57.9943 11.0706 57.9943 11.5986V16.518H55.5685V6.24657H57.0074L57.7526 7.47652C58.0999 7.1221 58.5358 6.82932 59.0674 6.59758C59.5954 6.36585 60.2224 6.24657 60.948 6.24657H62.287V8.37249ZM63.8131 11.3876C63.8131 10.6347 63.946 9.9293 64.2084 9.26847C64.4708 8.60423 64.842 8.02859 65.3256 7.53445C65.8064 7.04401 66.3855 6.6521 67.0633 6.36585C67.7381 6.083 68.4872 5.94015 69.3119 5.94015C69.7001 5.94015 70.0648 5.97736 70.4158 6.05233C70.7662 6.13071 71.0934 6.23295 71.4001 6.36273C71.7034 6.49194 71.986 6.64529 72.2418 6.8225C72.4968 6.99942 72.7254 7.18344 72.9262 7.37456L73.6112 6.24657H75.1407V16.518H73.6112L72.9262 15.3906C72.7186 15.5917 72.4872 15.7754 72.2282 15.9489C71.9689 16.1227 71.6861 16.273 71.3833 16.4022C71.08 16.5317 70.756 16.6373 70.4056 16.7123C70.0546 16.7907 69.6896 16.8279 69.3014 16.8279C68.4841 16.8279 67.7381 16.6848 67.0633 16.4022C66.3855 16.1196 65.8095 15.7311 65.3293 15.2404C64.8522 14.7465 64.4774 14.1706 64.2118 13.5101C63.946 12.8455 63.8131 12.1404 63.8131 11.3876ZM66.2389 11.3771C66.2389 11.8712 66.3241 12.3244 66.4976 12.7368C66.6717 13.1488 66.9066 13.5033 67.2062 13.7995C67.5061 14.0959 67.8537 14.324 68.2558 14.4878C68.6542 14.6511 69.0836 14.7332 69.5434 14.7332C69.9932 14.7332 70.4189 14.6511 70.8208 14.4878C71.2195 14.324 71.5674 14.0959 71.8633 13.7995C72.1597 13.5033 72.3949 13.1488 72.5653 12.7399C72.7391 12.331 72.8274 11.8783 72.8274 11.3771C72.8274 10.8934 72.7391 10.4439 72.5653 10.0349C72.3949 9.62601 72.1566 9.27528 71.8567 8.98221C71.5566 8.68942 71.2092 8.46081 70.8108 8.29411C70.409 8.12713 69.983 8.04534 69.5229 8.04534C69.0632 8.04534 68.6338 8.12713 68.2351 8.2873C67.8366 8.45116 67.489 8.68232 67.1928 8.97908C66.8964 9.27528 66.6615 9.62601 66.4942 10.0349C66.3241 10.4439 66.2389 10.8934 66.2389 11.3771ZM77.7642 3.32351L80.1977 3.31329V6.23635H83.7464L82.8464 8.34182H80.1875V12.5423C80.1875 12.9546 80.2335 13.2994 80.3303 13.5677C80.4274 13.8375 80.5581 14.0491 80.7188 14.205C80.8812 14.3626 81.0729 14.4719 81.2947 14.535C81.512 14.5975 81.7477 14.6307 81.9927 14.6307H83.4547L83.4553 16.6274H81.7647C81.2143 16.6274 80.691 16.568 80.2079 16.4567C79.7212 16.3448 79.2989 16.1358 78.9405 15.8334C78.5801 15.5295 78.2967 15.1146 78.0854 14.5898C77.8741 14.0653 77.7724 13.3874 77.7719 12.563L77.7642 3.32351ZM84.9471 11.3808C84.9471 10.631 85.0876 9.92305 85.3662 9.26165C85.6462 8.59826 86.0367 8.02064 86.5379 7.52764C87.0412 7.03322 87.639 6.64501 88.3302 6.35903C89.0214 6.07306 89.7779 5.92965 90.5958 5.92965C91.4199 5.92965 92.1802 6.07277 92.8782 6.35903C93.5725 6.64444 94.1703 7.03322 94.6736 7.52764C95.1748 8.02064 95.5693 8.59797 95.8521 9.26165C96.1344 9.92277 96.2747 10.631 96.2747 11.3808C96.2747 12.1404 96.1355 12.8498 95.8558 13.5101C95.5775 14.1675 95.1833 14.7426 94.6767 15.237C94.172 15.7297 93.5731 16.1168 92.8782 16.3988C92.1802 16.6816 91.4165 16.8248 90.5853 16.8248C89.7677 16.8248 89.0149 16.6808 88.3265 16.3988C87.6353 16.1156 87.0429 15.73 86.545 15.237C86.0449 14.7426 85.653 14.1667 85.3696 13.5033C85.0876 12.8419 84.9471 12.1333 84.9471 11.3808ZM87.3729 11.3671C87.3729 11.861 87.4595 12.3105 87.6282 12.7195C87.7963 13.1275 88.0269 13.4797 88.3197 13.7756C88.6127 14.0718 88.9572 14.3038 89.3488 14.4705C89.7404 14.6375 90.1627 14.719 90.6163 14.719C91.0692 14.719 91.4918 14.6375 91.8834 14.4739C92.275 14.3109 92.6195 14.082 92.9123 13.7858C93.2048 13.4899 93.4354 13.1341 93.6035 12.7232C93.7722 12.3105 93.8594 11.861 93.8594 11.3671C93.8594 10.8832 93.7725 10.4337 93.6035 10.0247C93.4357 9.61663 93.2048 9.26477 92.9123 8.97227C92.6198 8.67948 92.2753 8.45002 91.88 8.28389C91.4821 8.11633 91.0624 8.03512 90.6163 8.03512C90.1627 8.03512 89.7402 8.11719 89.3488 8.28048C88.9572 8.44406 88.6127 8.67267 88.3197 8.96886C88.0269 9.26478 87.7963 9.61663 87.6282 10.0247C87.4595 10.4337 87.3729 10.8832 87.3729 11.3671Z" fill="white"/>
  <path d="M170.571 2.45588C170.72 2.45588 170.865 2.49394 171.007 2.57061C171.148 2.64672 171.259 2.75606 171.338 2.89805C171.417 3.04061 171.457 3.18885 171.457 3.34277C171.457 3.49584 171.418 3.64294 171.34 3.7838C171.262 3.92494 171.153 4.03456 171.012 4.11237C170.871 4.19047 170.724 4.22937 170.571 4.22937C170.417 4.22937 170.27 4.19047 170.129 4.11237C169.988 4.03456 169.879 3.92494 169.801 3.7838C169.722 3.64294 169.683 3.49584 169.683 3.34277C169.683 3.18885 169.723 3.04061 169.802 2.89805C169.882 2.75606 169.993 2.64672 170.134 2.57061C170.277 2.49394 170.422 2.45588 170.571 2.45588ZM170.571 2.60242C170.446 2.60242 170.325 2.63451 170.207 2.69841C170.089 2.7623 169.997 2.85346 169.93 2.97217C169.863 3.09116 169.83 3.21469 169.83 3.34277C169.83 3.47085 169.863 3.59324 169.928 3.71053C169.994 3.82753 170.085 3.91898 170.202 3.98429C170.32 4.04989 170.443 4.08255 170.571 4.08255C170.698 4.08255 170.821 4.04989 170.938 3.98429C171.056 3.91898 171.147 3.82753 171.213 3.71053C171.278 3.59324 171.31 3.47085 171.31 3.34277C171.31 3.21469 171.277 3.09116 171.211 2.97217C171.144 2.85346 171.052 2.7623 170.934 2.69841C170.816 2.63451 170.694 2.60242 170.571 2.60242ZM170.855 3.4859L171 3.52906C170.976 3.62676 170.926 3.70542 170.85 3.76392C170.773 3.82242 170.681 3.85167 170.572 3.85167C170.434 3.85167 170.322 3.80708 170.236 3.71763C170.15 3.62817 170.107 3.50464 170.107 3.34618C170.107 3.24281 170.126 3.15279 170.166 3.07668C170.205 3 170.261 2.94263 170.333 2.90373C170.405 2.86482 170.489 2.84551 170.582 2.84551C170.686 2.84551 170.773 2.8705 170.842 2.92048C170.911 2.97075 170.958 3.03891 170.983 3.12467L170.843 3.16074C170.819 3.10195 170.785 3.05651 170.739 3.02527C170.693 2.99347 170.639 2.97785 170.577 2.97785C170.486 2.97785 170.412 3.00994 170.353 3.07412C170.295 3.1383 170.265 3.23059 170.265 3.35015C170.265 3.47028 170.293 3.56087 170.349 3.62221C170.404 3.68355 170.475 3.71451 170.563 3.71451C170.634 3.71451 170.696 3.69378 170.749 3.6526C170.802 3.61171 170.838 3.55576 170.855 3.4859Z" fill="white"/>
</svg>