<svg width="260" height="32" viewBox="0 0 260 32" fill="none" xmlns="http://www.w3.org/2000/svg">
  <path fill-rule="evenodd" clip-rule="evenodd" d="M0 0.787552H29.6085C13.597 15.7148 6.08544 17.1754 0 0.787552ZM29.6085 30.3958H0C16.0115 15.469 23.5229 14.0079 29.6085 30.3958Z" fill="#BCA68A"/>
  <path d="M40.36 5.26807H44.1383V22.6508H53.461V25.9155H40.36V5.26807ZM169.999 11.6428C169.652 10.9123 169.217 10.2595 168.683 9.67846C168.155 9.09309 167.553 8.60102 166.885 8.19148C166.216 7.77675 165.496 7.46053 164.723 7.23761C163.946 7.02031 163.148 6.90583 162.314 6.90583C161.122 6.90583 160.002 7.12918 158.95 7.57501C157.903 8.01998 156.991 8.6317 156.204 9.40889C155.421 10.1917 154.804 11.1088 154.353 12.1612C153.902 13.2132 153.674 14.3537 153.674 15.5763C153.674 16.7889 153.902 17.9242 154.353 18.9762C154.804 20.0281 155.421 20.9457 156.204 21.7177C156.991 22.4901 157.903 23.1019 158.95 23.5473C160.002 23.9931 161.122 24.216 162.314 24.216C163.138 24.216 163.931 24.1071 164.708 23.8894C165.481 23.6717 166.2 23.3606 166.869 22.9563C167.538 22.5519 168.139 22.0547 168.668 21.474C169.201 20.8934 169.637 20.2359 169.984 19.5101H172.471C172.088 20.5828 171.544 21.5363 170.839 22.3756C170.139 23.2155 169.336 23.9304 168.434 24.5111C167.533 25.0917 166.558 25.5371 165.506 25.8486C164.449 26.1536 163.387 26.3095 162.314 26.3095C161.303 26.3095 160.328 26.1851 159.385 25.9315C158.442 25.6771 157.567 25.3198 156.753 24.8532C155.934 24.3867 155.193 23.832 154.519 23.1844C153.845 22.5364 153.27 21.811 152.793 21.0131C152.322 20.21 151.949 19.3542 151.69 18.4375C151.425 17.5199 151.29 16.566 151.29 15.5763C151.29 14.5766 151.425 13.6123 151.69 12.6896C151.949 11.7672 152.322 10.9071 152.793 10.1087C153.27 9.31082 153.845 8.58504 154.519 7.93746C155.193 7.28945 155.934 6.73561 156.753 6.26904C157.567 5.80203 158.442 5.44433 159.385 5.19031C160.328 4.93672 161.303 4.81187 162.314 4.81187C163.387 4.81187 164.449 4.96264 165.496 5.26807C166.543 5.56919 167.522 6.01459 168.429 6.59521C169.331 7.17583 170.139 7.8908 170.839 8.73538C171.544 9.58039 172.088 10.5494 172.471 11.6428H169.999ZM216.313 6.43493H218.677V8.89652H216.313V6.43493ZM218.677 8.91294V25.9155H216.313V10.0474C216.985 9.43654 217.773 9.05853 218.677 8.91294ZM175.317 18.1882C175.317 17.0533 175.525 15.991 175.934 15.0064C176.344 14.0219 176.914 13.1561 177.649 12.4148C178.385 11.6795 179.256 11.0989 180.267 10.6738C181.283 10.2487 182.386 10.031 183.578 10.031C184.278 10.031 184.936 10.1139 185.558 10.2746C186.185 10.4405 186.761 10.6583 187.299 10.9278C187.833 11.2022 188.325 11.5292 188.766 11.902C189.207 12.2748 189.585 12.6744 189.912 13.0991L190.524 10.4613H192.114V25.9155H190.524L189.896 23.2881C189.569 23.7132 189.191 24.1123 188.751 24.48C188.31 24.848 187.817 25.1742 187.279 25.4541C186.734 25.7293 186.154 25.9466 185.532 26.1074C184.905 26.2624 184.252 26.3402 183.562 26.3402C182.371 26.3402 181.267 26.1277 180.262 25.703C179.257 25.2779 178.385 24.6977 177.649 23.9667C176.914 23.231 176.344 22.3649 175.934 21.376C175.525 20.3858 175.317 19.3239 175.317 18.1882ZM177.66 18.1882C177.66 19.0695 177.815 19.8778 178.136 20.6238C178.453 21.3708 178.888 22.0128 179.443 22.5519C179.992 23.0962 180.64 23.5213 181.386 23.8268C182.127 24.1378 182.92 24.2882 183.76 24.2882C184.61 24.2882 185.408 24.1378 186.144 23.8371C186.885 23.5317 187.533 23.1066 188.087 22.5623C188.646 22.0128 189.082 21.3708 189.404 20.6238C189.72 19.8778 189.881 19.0695 189.881 18.1882C189.881 17.3181 189.72 16.5094 189.393 15.7629C189.072 15.0215 188.631 14.3792 188.082 13.8353C187.527 13.2961 186.879 12.871 186.138 12.5604C185.392 12.2545 184.599 12.099 183.76 12.099C182.91 12.099 182.112 12.2545 181.37 12.5604C180.624 12.871 179.982 13.2961 179.432 13.8353C178.888 14.3792 178.453 15.0215 178.136 15.7629C177.815 16.5094 177.66 17.3181 177.66 18.1882ZM213.006 18.1882C213.006 19.3239 212.804 20.3858 212.394 21.3807C211.985 22.3756 211.415 23.2362 210.684 23.9719C209.959 24.7081 209.093 25.2887 208.088 25.7134C207.087 26.1385 205.989 26.351 204.797 26.351C204.108 26.351 203.46 26.2784 202.854 26.1285C202.242 25.9829 201.672 25.7807 201.143 25.522C200.609 25.2628 200.127 24.9517 199.692 24.5893C199.257 24.2212 198.873 23.8268 198.537 23.4021V31.2124H196.199V10.4509H197.721L198.37 13.141C198.697 12.7159 199.075 12.3116 199.516 11.9331C199.957 11.5551 200.449 11.2229 200.993 10.9382C201.532 10.6531 202.118 10.4302 202.75 10.2694C203.387 10.1087 204.05 10.0262 204.75 10.0262C205.942 10.0262 207.046 10.2383 208.051 10.6583C209.057 11.0782 209.928 11.6584 210.663 12.3997C211.394 13.1354 211.97 14.0007 212.384 14.9961C212.799 15.991 213.006 17.0533 213.006 18.1882ZM210.653 18.1938C210.653 17.3121 210.498 16.499 210.176 15.7525C209.86 15.0064 209.425 14.3636 208.87 13.8197C208.321 13.2806 207.673 12.8507 206.937 12.5448C206.196 12.2338 205.403 12.0783 204.553 12.0783C203.714 12.0783 202.921 12.2338 202.175 12.5448C201.433 12.8507 200.785 13.2806 200.231 13.8197C199.682 14.3636 199.246 15.0064 198.925 15.7525C198.609 16.499 198.448 17.3121 198.448 18.1938C198.448 19.0695 198.609 19.8778 198.925 20.6238C199.246 21.3708 199.682 22.0128 200.242 22.5575C200.796 23.0962 201.444 23.527 202.185 23.8319C202.921 24.143 203.714 24.2981 204.569 24.2981C205.419 24.2981 206.212 24.143 206.953 23.8319C207.688 23.527 208.331 23.0962 208.881 22.5575C209.425 22.0128 209.86 21.3708 210.176 20.6238C210.498 19.8778 210.653 19.0695 210.653 18.1938ZM221.78 5.92128H224.114V10.4613H229.685L228.51 12.5137H224.114V20.0748C224.114 20.8831 224.208 21.557 224.394 22.0858C224.581 22.6189 224.831 23.0418 225.145 23.3554C225.459 23.6691 225.825 23.8873 226.238 24.0082C226.652 24.1287 227.083 24.1901 227.53 24.1901H229.247L229.24 26.1644H227.333C226.547 26.1644 225.813 26.0654 225.14 25.8689C224.467 25.6727 223.88 25.3362 223.383 24.8636C222.89 24.3931 222.502 23.7697 222.217 22.9977C221.933 22.2257 221.793 21.2563 221.792 20.0903L221.78 5.92128ZM231.156 18.1882C231.156 17.0533 231.364 15.9905 231.773 15.0064C232.182 14.0219 232.751 13.1544 233.488 12.4148C234.222 11.6782 235.095 11.0972 236.106 10.6738C237.12 10.2483 238.225 10.031 239.417 10.031C240.117 10.031 240.776 10.1122 241.397 10.2746C242.024 10.4384 242.601 10.6557 243.138 10.9278C243.673 11.1991 244.165 11.5292 244.605 11.902C245.045 12.2748 245.424 12.6744 245.751 13.0991L246.363 10.4613H247.953V25.9155H246.361L245.735 23.2881C245.408 23.7132 245.03 24.1123 244.59 24.48C244.149 24.8476 243.657 25.1777 243.117 25.4541C242.575 25.7315 241.993 25.9501 241.371 26.1074C240.745 26.265 240.091 26.3402 239.401 26.3402C238.21 26.3402 237.106 26.1281 236.1 25.703C235.095 25.2783 234.222 24.6986 233.488 23.9667C232.752 23.2323 232.182 22.3649 231.773 21.376C231.364 20.3862 231.156 19.3239 231.156 18.1882ZM233.499 18.1882C233.499 19.0695 233.656 19.8773 233.975 20.6238C234.294 21.3699 234.73 22.011 235.282 22.5519C235.833 23.0932 236.48 23.5183 237.225 23.8268C237.967 24.1344 238.759 24.2882 239.599 24.2882C240.449 24.2882 241.247 24.1387 241.983 23.8371C242.724 23.533 243.372 23.1066 243.926 22.5623C244.485 22.0132 244.924 21.3708 245.243 20.6238C245.56 19.8786 245.719 19.0695 245.719 18.1882C245.719 17.3181 245.557 16.5094 245.232 15.7629C244.91 15.0224 244.472 14.3766 243.921 13.8353C243.369 13.2939 242.719 12.868 241.977 12.5604C241.233 12.2519 240.439 12.099 239.599 12.099C238.748 12.099 237.95 12.2537 237.209 12.5604C236.463 12.8697 235.818 13.2939 235.271 13.8353C234.725 14.3766 234.292 15.0224 233.975 15.7629C233.656 16.5094 233.499 17.3181 233.499 18.1882ZM252.447 4.52199H254.784V25.9155H252.447V4.52199ZM56.8195 5.62664H60.5408V8.80191H56.8195V5.62664ZM60.5408 8.81315V25.9155H56.8195V10.698C57.6481 9.66593 59.332 8.94577 60.5408 8.81315ZM80.5195 10.3057L73.8653 25.9155H70.5275L63.9092 10.3057H67.8534L72.1809 21.0183H72.212L76.5394 10.3057H80.5195ZM93.9269 13.5242L92.087 13.5398C91.3668 13.5398 90.7188 13.6439 90.1438 13.8504C89.5684 14.0582 89.0763 14.3688 88.6616 14.7783C88.252 15.1879 87.9405 15.7007 87.7232 16.3124C87.5059 16.9237 87.3967 17.6287 87.3967 18.4318V25.9155H83.7064V10.2902H85.8954L87.029 12.1612C87.5574 11.6221 88.2205 11.1767 89.0292 10.8242C89.8323 10.4716 90.7862 10.2902 91.89 10.2902H93.9269V13.5242ZM96.2485 18.1109C96.2485 16.9656 96.4507 15.8925 96.8499 14.8872C97.2491 13.8767 97.8137 13.001 98.5494 12.2494C99.2808 11.5033 100.162 10.9071 101.193 10.4716C102.219 10.0413 103.359 9.82404 104.614 9.82404C105.204 9.82404 105.759 9.88065 106.293 9.9947C106.826 10.1139 107.324 10.2695 107.79 10.4669C108.251 10.6634 108.681 10.8967 109.071 11.1663C109.459 11.4354 109.806 11.7154 110.112 12.0061L111.154 10.2902H113.481V25.9155H111.154L110.112 24.2005C109.796 24.5063 109.444 24.7858 109.05 25.0498C108.655 25.3142 108.225 25.5427 107.765 25.7393C107.303 25.9363 106.81 26.097 106.277 26.211C105.743 26.3303 105.188 26.3869 104.598 26.3869C103.354 26.3869 102.219 26.1691 101.193 25.7393C100.162 25.3094 99.2855 24.7184 98.555 23.9719C97.8292 23.2207 97.259 22.3445 96.8551 21.3397C96.4507 20.3288 96.2485 19.2561 96.2485 18.1109ZM99.9387 18.0949C99.9387 18.8466 100.068 19.5361 100.332 20.1633C100.597 20.7902 100.954 21.3293 101.41 21.7799C101.866 22.2309 102.395 22.5778 103.007 22.8271C103.613 23.0755 104.266 23.2004 104.966 23.2004C105.65 23.2004 106.298 23.0755 106.909 22.8271C107.515 22.5778 108.045 22.2309 108.495 21.7799C108.946 21.3293 109.303 20.7902 109.563 20.1681C109.827 19.546 109.961 18.8574 109.961 18.0949C109.961 17.3592 109.827 16.6753 109.563 16.0532C109.303 15.4311 108.941 14.8976 108.485 14.4517C108.028 14.0063 107.5 13.6586 106.894 13.405C106.282 13.151 105.634 13.0265 104.935 13.0265C104.235 13.0265 103.582 13.151 102.975 13.3946C102.369 13.6439 101.84 13.9955 101.39 14.447C100.939 14.8976 100.582 15.4311 100.327 16.0532C100.068 16.6753 99.9387 17.3592 99.9387 18.0949ZM117.471 5.84351L121.173 5.82796V10.2746H126.572L125.203 13.4776H121.158V19.8674C121.158 20.4947 121.228 21.0191 121.375 21.4274C121.523 21.8378 121.722 22.1596 121.966 22.3968C122.213 22.6366 122.505 22.8029 122.842 22.8988C123.173 22.9939 123.531 23.0444 123.904 23.0444H126.128L126.129 26.0819H123.557C122.72 26.0819 121.924 25.9916 121.189 25.8222C120.448 25.652 119.806 25.3341 119.261 24.874C118.713 24.4117 118.281 23.7805 117.96 22.9822C117.639 22.1843 117.484 21.1531 117.483 19.8989L117.471 5.84351ZM128.398 18.1005C128.398 16.96 128.612 15.883 129.036 14.8768C129.462 13.8677 130.056 12.989 130.818 12.239C131.584 11.4869 132.493 10.8963 133.545 10.4613C134.596 10.0262 135.747 9.80807 136.991 9.80807C138.245 9.80807 139.402 10.0258 140.463 10.4613C141.52 10.8954 142.429 11.4869 143.195 12.239C143.957 12.989 144.557 13.8672 144.987 14.8768C145.417 15.8825 145.63 16.96 145.63 18.1005C145.63 19.2561 145.419 20.3353 144.993 21.3397C144.57 22.3398 143.97 23.2146 143.199 23.9667C142.432 24.7163 141.521 25.3051 140.463 25.7341C139.402 26.1644 138.24 26.3821 136.975 26.3821C135.732 26.3821 134.586 26.1631 133.539 25.7341C132.488 25.3034 131.586 24.7167 130.829 23.9667C130.068 23.2146 129.472 22.3385 129.041 21.3293C128.612 20.3232 128.398 19.2453 128.398 18.1005ZM132.088 18.0797C132.088 18.831 132.22 19.5149 132.477 20.137C132.733 20.7578 133.083 21.2935 133.529 21.7436C133.975 22.1942 134.499 22.5472 135.094 22.8007C135.69 23.0548 136.333 23.1788 137.022 23.1788C137.711 23.1788 138.354 23.0548 138.95 22.8059C139.546 22.558 140.07 22.2098 140.515 21.7592C140.96 21.309 141.311 20.7677 141.567 20.1426C141.823 19.5149 141.956 18.831 141.956 18.0797C141.956 17.3436 141.824 16.6597 141.567 16.0376C141.311 15.4168 140.96 14.8816 140.515 14.4366C140.07 13.9912 139.546 13.6421 138.945 13.3894C138.34 13.1345 137.701 13.011 137.022 13.011C136.333 13.011 135.69 13.1358 135.094 13.3842C134.499 13.6331 133.975 13.9808 133.529 14.4314C133.083 14.8816 132.733 15.4168 132.477 16.0376C132.22 16.6597 132.088 17.3436 132.088 18.0797Z" fill="#00474D"/>
  <path d="M258.652 4.52354C258.878 4.52354 259.099 4.58143 259.315 4.69807C259.531 4.81385 259.699 4.98018 259.819 5.19618C259.94 5.41305 260 5.63855 260 5.8727C260 6.10556 259.941 6.32934 259.822 6.54362C259.704 6.75832 259.538 6.92508 259.323 7.04345C259.109 7.16226 258.885 7.22144 258.652 7.22144C258.418 7.22144 258.195 7.16226 257.98 7.04345C257.766 6.92508 257.6 6.75832 257.481 6.54362C257.362 6.32934 257.302 6.10556 257.302 5.8727C257.302 5.63855 257.362 5.41305 257.483 5.19618C257.605 4.98018 257.773 4.81385 257.988 4.69807C258.205 4.58143 258.425 4.52354 258.652 4.52354ZM258.652 4.74645C258.462 4.74645 258.278 4.79527 258.098 4.89248C257.919 4.98968 257.779 5.12835 257.677 5.30893C257.576 5.48994 257.525 5.67787 257.525 5.8727C257.525 6.06754 257.575 6.25373 257.675 6.43215C257.774 6.61014 257.913 6.74925 258.092 6.84862C258.271 6.94841 258.457 6.99809 258.652 6.99809C258.846 6.99809 259.033 6.94841 259.212 6.84862C259.39 6.74925 259.53 6.61014 259.628 6.43215C259.727 6.25373 259.777 6.06754 259.777 5.8727C259.777 5.67787 259.726 5.48994 259.625 5.30893C259.525 5.12835 259.384 4.98968 259.204 4.89248C259.025 4.79527 258.84 4.74645 258.652 4.74645ZM259.085 6.09044L259.304 6.1561C259.269 6.30472 259.193 6.42438 259.077 6.51338C258.96 6.60237 258.819 6.64686 258.654 6.64686C258.444 6.64686 258.274 6.57904 258.143 6.44295C258.011 6.30687 257.946 6.11895 257.946 5.87789C257.946 5.72064 257.976 5.58369 258.036 5.46792C258.095 5.35127 258.18 5.264 258.291 5.20482C258.401 5.14563 258.527 5.11625 258.669 5.11625C258.828 5.11625 258.959 5.15428 259.064 5.23031C259.169 5.30678 259.241 5.41046 259.279 5.54092L259.066 5.59579C259.031 5.50636 258.978 5.43724 258.908 5.38972C258.838 5.34133 258.756 5.31758 258.662 5.31758C258.524 5.31758 258.411 5.36639 258.321 5.46402C258.233 5.56166 258.188 5.70206 258.188 5.88394C258.188 6.06668 258.23 6.20449 258.314 6.2978C258.399 6.39112 258.507 6.43821 258.64 6.43821C258.748 6.43821 258.843 6.40667 258.924 6.34403C259.005 6.28182 259.059 6.19671 259.085 6.09044Z" fill="#074D54"/>
  </svg>
  