<svg xmlns="http://www.w3.org/2000/svg" width="56" height="56" viewBox="0 0 56 56" fill="none">
  <rect x="0.5" y="0.5" width="55" height="55" rx="7.5" fill="#00474D"/>
  <rect x="0.5" y="0.5" width="55" height="55" rx="7.5" stroke="#008E97"/>
  <path d="M24.9821 19.3384L23.3326 17.6889L26.3388 14.6826C26.7765 14.2455 27.3698 14 27.9884 14C28.6069 14 29.2002 14.2455 29.6379 14.6826L32.6675 17.711L31.0179 19.3606L29.1549 17.4987V23.3316H26.8218V17.4987L24.9821 19.3384ZM20.3053 20.5155C19.8677 20.0784 19.2744 19.8328 18.6558 19.8328C18.0372 19.8328 17.444 20.0784 17.0063 20.5155L14 23.5217L15.6496 25.1713L17.4892 23.3316V41.9967H19.8224V23.3316L21.6854 25.1934L23.3349 23.5439L20.3053 20.5155ZM38.9704 24.0152C38.5328 23.5781 37.9395 23.3326 37.3209 23.3326C36.7024 23.3326 36.1091 23.5781 35.6714 24.0152L32.6651 27.0214L34.3147 28.671L36.1544 26.8313V41.9967H38.4875V26.8313L40.3505 28.6931L42 27.0436L38.9704 24.0152ZM26.8218 30.331H29.1549C29.7989 30.331 30.3215 30.8548 30.3215 31.4976H32.6546C32.6546 29.5681 31.0844 27.9979 29.1549 27.9979V25.6647H26.8218V27.9979C24.8923 27.9979 23.3221 29.5681 23.3221 31.4976C23.3221 33.0841 24.4583 34.4256 26.0227 34.6858L29.5702 35.2772C29.7804 35.3116 29.9714 35.4197 30.1091 35.5822C30.2468 35.7447 30.3221 35.9509 30.3215 36.1638C30.3215 36.8066 29.7989 37.3304 29.1549 37.3304H26.8218C26.1778 37.3304 25.6552 36.8066 25.6552 36.1638H23.3221C23.3221 38.0933 24.8923 39.6635 26.8218 39.6635V41.9967H29.1549V39.6635C31.0844 39.6635 32.6546 38.0933 32.6546 36.1638C32.6546 34.5773 31.5184 33.2358 29.954 32.9756L26.4065 32.3842C26.1963 32.3498 26.0053 32.2417 25.8676 32.0792C25.7299 31.9167 25.6547 31.7105 25.6552 31.4976C25.6552 30.8548 26.1778 30.331 26.8218 30.331Z" fill="#F5F5F5"/>
</svg>