<svg xmlns="http://www.w3.org/2000/svg" width="27" height="15" viewBox="0 0 27 15" fill="none">
  <g clip-path="url(#clip0_9_6573)">
    <path d="M19.7649 0.756265C19.6939 0.686191 19.6095 0.631014 19.5168 0.593967C19.4241 0.556921 19.3249 0.538751 19.2251 0.540523C19.1253 0.542295 19.0269 0.563974 18.9356 0.604287C18.8442 0.6446 18.7619 0.702737 18.6933 0.775291C18.6248 0.847844 18.5714 0.933354 18.5363 1.02681C18.5012 1.12026 18.4851 1.21978 18.489 1.31952C18.4929 1.41927 18.5166 1.51724 18.5589 1.60769C18.6011 1.69814 18.661 1.77925 18.7349 1.84626L23.9739 6.80127L1.24994 6.80127C1.05103 6.80127 0.860264 6.88028 0.719612 7.02094C0.57896 7.16159 0.499943 7.35236 0.499943 7.55127C0.499943 7.75018 0.57896 7.94094 0.719612 8.0816C0.860264 8.22225 1.05103 8.30127 1.24994 8.30127L23.9759 8.30127L18.7349 13.2583C18.661 13.3253 18.6011 13.4064 18.5589 13.4968C18.5166 13.5873 18.4929 13.6853 18.489 13.785C18.4851 13.8848 18.5012 13.9843 18.5363 14.0777C18.5714 14.1712 18.6248 14.2567 18.6933 14.3292C18.7619 14.4018 18.8442 14.4599 18.9356 14.5002C19.0269 14.5406 19.1253 14.5622 19.2251 14.564C19.3249 14.5658 19.4241 14.5476 19.5168 14.5106C19.6095 14.4735 19.6939 14.4183 19.7649 14.3483L26.1829 8.27826C26.3423 8.1276 26.4477 7.92872 26.4829 7.71226C26.5065 7.60412 26.5058 7.49211 26.4809 7.38427C26.4446 7.17092 26.34 6.97512 26.1829 6.82626L19.7649 0.756265Z" fill="#DCDCDC"/>
  </g>
  <defs>
    <clipPath id="clip0_9_6573">
      <rect width="15" height="27" fill="white" transform="matrix(0 1 -1 0 27 0)"/>
    </clipPath>
  </defs>
</svg>