<svg width="32" height="32" viewBox="0 0 32 32" fill="none" xmlns="http://www.w3.org/2000/svg">
<g id="Frame">
<g id="Group">
<path id="Vector" d="M23 4H9C6.243 4 4 6.243 4 9V23C4 25.757 6.243 28 9 28H23C25.757 28 28 25.757 28 23V9C28 6.243 25.757 4 23 4ZM26 23C26 24.654 24.654 26 23 26H9C7.346 26 6 24.654 6 23V9C6 7.346 7.346 6 9 6H23C24.654 6 26 7.346 26 9V23ZM20 18C20 19.654 18.654 21 17 21V22C17 22.2652 16.8946 22.5196 16.7071 22.7071C16.5196 22.8946 16.2652 23 16 23C15.7348 23 15.4804 22.8946 15.2929 22.7071C15.1054 22.5196 15 22.2652 15 22V21H14.732C14.2057 20.9991 13.6888 20.8602 13.233 20.5972C12.7771 20.3341 12.3982 19.9562 12.134 19.501C12.0638 19.3872 12.0172 19.2606 11.9968 19.1285C11.9764 18.9964 11.9827 18.8615 12.0153 18.7319C12.0479 18.6023 12.1062 18.4805 12.1867 18.3738C12.2671 18.2671 12.3682 18.1776 12.4839 18.1106C12.5995 18.0436 12.7274 18.0005 12.8601 17.9838C12.9927 17.9671 13.1273 17.9771 13.256 18.0133C13.3846 18.0495 13.5047 18.1112 13.6092 18.1946C13.7136 18.278 13.8003 18.3815 13.864 18.499C14.043 18.809 14.375 19 14.731 19H16.999C17.2642 19 17.5186 18.8946 17.7061 18.7071C17.8936 18.5196 17.999 18.2652 17.999 18C17.9995 17.8175 17.9349 17.6407 17.8169 17.5014C17.6989 17.3622 17.5352 17.2695 17.355 17.24L14.314 16.733C13.6662 16.627 13.0775 16.2937 12.6532 15.7928C12.229 15.292 11.997 14.6564 11.999 14C11.999 12.346 13.345 11 14.999 11V10C14.999 9.73478 15.1044 9.48043 15.2919 9.29289C15.4794 9.10536 15.7338 9 15.999 9C16.2642 9 16.5186 9.10536 16.7061 9.29289C16.8936 9.48043 16.999 9.73478 16.999 10V11H17.267C18.334 11 19.33 11.575 19.865 12.5C19.9364 12.6138 19.9841 12.7408 20.0053 12.8734C20.0265 13.0061 20.0208 13.1416 19.9885 13.272C19.9562 13.4024 19.8979 13.5249 19.8172 13.6323C19.7365 13.7397 19.635 13.8297 19.5187 13.897C19.4024 13.9642 19.2738 14.0074 19.1405 14.0239C19.0072 14.0403 18.8719 14.0298 18.7428 13.9928C18.6136 13.9559 18.4932 13.8933 18.3888 13.8088C18.2844 13.7243 18.1981 13.6196 18.135 13.501C18.0468 13.3491 17.9204 13.223 17.7682 13.1353C17.6161 13.0475 17.4436 13.0012 17.268 13.001H15C14.448 13.001 14 13.45 14 14.001C14 14.379 14.271 14.699 14.644 14.761L17.685 15.268C18.3328 15.374 18.9215 15.7073 19.3458 16.2082C19.77 16.709 20.002 17.3446 20 18.001V18Z" fill="#00B6BF"/>
<path id="Line 5" d="M23.4142 9L22.0456 10.4598" stroke="#00B6BF" stroke-width="2" stroke-linecap="round"/>
<path id="Line 7" d="M10.4426 22.0284L9.72131 22.7213L9 23.4142" stroke="#00B6BF" stroke-width="2" stroke-linecap="round"/>
</g>
</g>
</svg>
