<svg width="32" height="32" viewBox="0 0 32 32" fill="none" xmlns="http://www.w3.org/2000/svg">
<g id="Frame">
<g id="Group">
<path id="Vector" d="M27.0002 18.0005H26.3332C26.0832 18.0005 25.8352 18.0195 25.5882 18.0575L18.5425 12.7737L20.2305 11.1578C20.3253 11.067 20.4014 10.9583 20.4543 10.8381C20.5072 10.7179 20.5359 10.5885 20.5388 10.4572C20.5417 10.3259 20.5187 10.1953 20.4711 10.0729C20.4235 9.95053 20.3523 9.83869 20.2615 9.74382C20.1707 9.64894 20.0621 9.57288 19.9419 9.51997C19.8217 9.46707 19.6922 9.43836 19.5609 9.43548C19.4296 9.4326 19.299 9.45561 19.1766 9.5032C19.0542 9.55078 18.9424 9.62201 18.8475 9.71282L14.6747 13.7077C14.5716 13.8114 14.4469 13.8913 14.3095 13.9415C14.1721 13.9917 14.0253 14.011 13.8796 13.9982C13.7338 13.9853 13.5927 13.9405 13.4663 13.8669C13.3398 13.7934 13.231 13.6929 13.1478 13.5727C12.8738 13.1927 12.9578 12.5977 13.3157 12.2387L18.0186 7.8099C18.9095 6.97293 20.3025 6.76794 21.3924 7.31492L23.7083 8.47287C24.3983 8.81786 25.1723 8.99985 25.9432 8.99985H26.9992C27.2644 8.99985 27.5187 8.8945 27.7063 8.70697C27.8938 8.51944 27.9991 8.2651 27.9991 7.99989C27.9991 7.73468 27.8938 7.48034 27.7063 7.29281C27.5187 7.10528 27.2644 6.99993 26.9992 6.99993H25.9432C25.4802 6.99993 25.0153 6.89094 24.6013 6.68394L22.2874 5.52599C20.4635 4.61303 18.1345 4.95202 16.6466 6.35396L16.0286 6.93593L15.3287 6.29796C14.4017 5.45517 13.1916 4.99185 11.9388 5.00001C11.1678 5.00001 10.3989 5.18201 9.7119 5.52499L7.398 6.68294C6.98301 6.88994 6.51803 6.99893 6.05505 6.99893H5.0011C4.86978 6.99893 4.73975 7.0248 4.61843 7.07505C4.49711 7.1253 4.38687 7.19896 4.29402 7.29181C4.20116 7.38467 4.12751 7.4949 4.07725 7.61622C4.027 7.73754 4.00114 7.86757 4.00114 7.99889C4.00114 8.13021 4.027 8.26024 4.07725 8.38156C4.12751 8.50288 4.20116 8.61311 4.29402 8.70597C4.38687 8.79882 4.49711 8.87248 4.61843 8.92273C4.73975 8.97298 4.86978 8.99885 5.0011 8.99885H6.05705C6.82802 8.99885 7.60199 8.81586 8.29296 8.47187L10.6089 7.31392C11.6308 6.79994 13.0668 6.93893 13.9827 7.7759L14.5697 8.31088L11.9238 10.8028C10.8509 11.8747 10.6799 13.5697 11.5258 14.7406C12.0458 15.4636 13.0788 15.9996 13.9697 15.9996C14.7627 15.9996 15.5237 15.6876 16.0736 15.1366L17.0796 14.1736L23.4253 18.9324L17.2276 23.5782C16.8737 23.8524 16.4383 24.0002 15.9907 23.9982C15.5431 23.9962 15.1091 23.8445 14.7577 23.5672L8.66694 18.9994C7.80055 18.3521 6.74855 18.0015 5.66707 17.9995H5.0001C4.73489 17.9995 4.48055 18.1048 4.29302 18.2924C4.10549 18.4799 4.00014 18.7342 4.00014 18.9994C4.00014 19.2646 4.10549 19.519 4.29302 19.7065C4.48055 19.894 4.73489 19.9994 5.0001 19.9994H5.66707C6.31204 19.9994 6.95101 20.2124 7.46699 20.5994L13.5437 25.1572C14.2469 25.7054 15.113 26.0031 16.0046 26.0031C16.8666 26.0031 17.7276 25.7241 18.4415 25.1682L24.5343 20.6004C25.0537 20.212 25.6846 20.0015 26.3332 20.0004H27.0002C27.2654 20.0004 27.5197 19.895 27.7073 19.7075C27.8948 19.52 28.0001 19.2656 28.0001 19.0004C28.0001 18.7352 27.8948 18.4809 27.7073 18.2934C27.5197 18.1058 27.2654 18.0005 27.0002 18.0005Z" fill="#00B6BF"/>
</g>
</g>
</svg>
