<svg width="56" height="57" viewBox="0 0 56 57" fill="none" xmlns="http://www.w3.org/2000/svg">
<g id="Frame">
<rect x="0.5" y="1" width="55" height="55" rx="7.5" fill="#00474D"/>
<rect x="0.5" y="1" width="55" height="55" rx="7.5" stroke="#008E97"/>
<g id="Group">
<g id="Vector">
<path d="M19.0636 37.4851C18.4758 37.4851 17.9852 37.2883 17.5916 36.8947C17.1972 36.5003 17 36.0092 17 35.4215V21.6598C17 21.072 17.1972 20.5814 17.5916 20.1878C17.9852 19.7934 18.4758 19.5962 19.0636 19.5962H37.9364C38.5242 19.5962 39.0148 19.7934 39.4084 20.1878C39.8028 20.5814 40 21.072 40 21.6598V35.4215C40 36.0092 39.8032 36.4999 39.4097 36.8935C39.0153 37.2879 38.5242 37.4851 37.9364 37.4851H19.0636ZM28.5 28.6876L18.2778 22.0048V35.4215C18.2778 35.6506 18.3515 35.8389 18.4988 35.9862C18.6462 36.1336 18.8345 36.2073 19.0636 36.2073H37.9364C38.1655 36.2073 38.3538 36.1336 38.5012 35.9862C38.6485 35.8389 38.7222 35.6506 38.7222 35.4215V22.0048L28.5 28.6876ZM28.5 27.2629L38.3287 20.874H18.6713L28.5 27.2629ZM18.2778 22.0048V20.874V35.4215C18.2778 35.6506 18.3515 35.8389 18.4988 35.9862C18.6462 36.1336 18.8345 36.2073 19.0636 36.2073H18.2778V22.0048Z" fill="#F5F5F5"/>
<path d="M18.2778 22.0048L28.5 28.6876L38.7222 22.0048V35.4215C38.7222 35.6506 38.6485 35.8389 38.5012 35.9862C38.3538 36.1336 38.1655 36.2073 37.9364 36.2073H19.0636M18.2778 22.0048V35.4215M18.2778 22.0048V20.874V35.4215M18.2778 22.0048V36.2073H19.0636M18.2778 35.4215C18.2778 35.6506 18.3515 35.8389 18.4988 35.9862C18.6462 36.1336 18.8345 36.2073 19.0636 36.2073M19.0636 37.4851C18.4758 37.4851 17.9852 37.2883 17.5916 36.8947C17.1972 36.5003 17 36.0092 17 35.4215V21.6598C17 21.072 17.1972 20.5814 17.5916 20.1878C17.9852 19.7934 18.4758 19.5962 19.0636 19.5962H37.9364C38.5242 19.5962 39.0148 19.7934 39.4084 20.1878C39.8028 20.5814 40 21.072 40 21.6598V35.4215C40 36.0092 39.8032 36.4999 39.4097 36.8935C39.0153 37.2879 38.5242 37.4851 37.9364 37.4851H19.0636ZM28.5 27.2629L38.3287 20.874H18.6713L28.5 27.2629Z" stroke="#F0F8FF" stroke-width="0.5"/>
</g>
</g>
</g>
</svg>
