<svg width="25" height="19" viewBox="0 0 25 19" fill="none" xmlns="http://www.w3.org/2000/svg">
<path d="M3.06361 18.4851C2.47583 18.4851 1.98517 18.2883 1.59161 17.8947C1.1972 17.5003 1 17.0092 1 16.4215V2.6598C1 2.07202 1.1972 1.58136 1.59161 1.1878C1.98517 0.793395 2.47583 0.596191 3.06361 0.596191H21.9364C22.5242 0.596191 23.0148 0.793395 23.4084 1.1878C23.8028 1.58136 24 2.07202 24 2.6598V16.4215C24 17.0092 23.8032 17.4999 23.4097 17.8935C23.0153 18.2879 22.5242 18.4851 21.9364 18.4851H3.06361ZM12.5 9.68758L2.27778 3.0048V16.4215C2.27778 16.6506 2.35146 16.8389 2.49883 16.9862C2.6462 17.1336 2.83446 17.2073 3.06361 17.2073H21.9364C22.1655 17.2073 22.3538 17.1336 22.5012 16.9862C22.6485 16.8389 22.7222 16.6506 22.7222 16.4215V3.0048L12.5 9.68758ZM12.5 8.26286L22.3287 1.87397H2.67133L12.5 8.26286ZM2.27778 3.0048V1.87397V16.4215C2.27778 16.6506 2.35146 16.8389 2.49883 16.9862C2.6462 17.1336 2.83446 17.2073 3.06361 17.2073H2.27778V3.0048Z" fill="#F5F5F5"/>
<path d="M2.27778 3.0048L12.5 9.68758L22.7222 3.0048V16.4215C22.7222 16.6506 22.6485 16.8389 22.5012 16.9862C22.3538 17.1336 22.1655 17.2073 21.9364 17.2073H3.06361M2.27778 3.0048V16.4215M2.27778 3.0048V1.87397V16.4215M2.27778 3.0048V17.2073H3.06361M2.27778 16.4215C2.27778 16.6506 2.35146 16.8389 2.49883 16.9862C2.6462 17.1336 2.83446 17.2073 3.06361 17.2073M3.06361 18.4851C2.47583 18.4851 1.98517 18.2883 1.59161 17.8947C1.1972 17.5003 1 17.0092 1 16.4215V2.6598C1 2.07202 1.1972 1.58136 1.59161 1.1878C1.98517 0.793395 2.47583 0.596191 3.06361 0.596191H21.9364C22.5242 0.596191 23.0148 0.793395 23.4084 1.1878C23.8028 1.58136 24 2.07202 24 2.6598V16.4215C24 17.0092 23.8032 17.4999 23.4097 17.8935C23.0153 18.2879 22.5242 18.4851 21.9364 18.4851H3.06361ZM12.5 8.26286L22.3287 1.87397H2.67133L12.5 8.26286Z" stroke="#F0F8FF" stroke-width="0.5"/>
</svg>
