<svg xmlns="http://www.w3.org/2000/svg" width="56" height="56" viewBox="0 0 56 56" fill="none">
  <rect x="0.5" y="0.5" width="55" height="55" rx="7.5" fill="#00474D"/>
  <rect x="0.5" y="0.5" width="55" height="55" rx="7.5" stroke="#008E97"/>
  <path d="M26.8326 42.0001C23.4292 42.0001 20.1652 40.6481 17.7586 38.2415C15.352 35.8349 14 32.5709 14 29.1675C14 25.7641 15.352 22.5001 17.7586 20.0935C20.1652 17.687 23.4292 16.335 26.8326 16.335H28.0024L28.0176 17.5047L28.0024 27.9977H39.6651V29.1675C39.6614 32.5698 38.3082 35.8316 35.9025 38.2374C33.4967 40.6432 30.2348 41.9964 26.8326 42.0001ZM25.6768 18.7389C23.7127 18.9567 21.8501 19.7248 20.3033 20.9547C18.7564 22.1845 17.5884 23.8262 16.9335 25.6907C16.2787 27.5552 16.1636 29.5667 16.6016 31.4937C17.0397 33.4207 18.013 35.1849 19.4095 36.5831C20.806 37.9813 22.5689 38.9567 24.4954 39.397C26.4219 39.8374 28.4335 39.7248 30.2988 39.0722C32.1641 38.4196 33.8072 37.2535 35.0389 35.7082C36.2707 34.1629 37.041 32.3011 37.2612 30.3373H25.6628L25.6768 18.7389Z" fill="#F5F5F5"/>
  <path d="M32.7038 16.6367C34.3106 17.0571 35.7767 17.8976 36.9513 19.0718C38.126 20.2461 38.967 21.7118 39.3879 23.3185H32.7038V16.6367ZM30.3642 14V25.6581H42.0246C42.0096 22.5704 40.7761 19.6135 38.5926 17.4304C36.409 15.2473 33.4519 14.0145 30.3642 14Z" fill="#F5F5F5"/>
</svg>