<svg width="23" height="24" viewBox="0 0 23 24" fill="none" xmlns="http://www.w3.org/2000/svg">
<path d="M17.641 4.57519C17.3681 4.57519 17.1013 4.65613 16.8743 4.80776C16.6474 4.9594 16.4705 5.17493 16.366 5.42709C16.2616 5.67925 16.2343 5.95672 16.2875 6.22442C16.3408 6.49211 16.4722 6.738 16.6652 6.931C16.8582 7.124 17.1041 7.25543 17.3718 7.30867C17.6395 7.36192 17.9169 7.33459 18.1691 7.23014C18.4213 7.1257 18.6368 6.94882 18.7884 6.72188C18.9401 6.49494 19.021 6.22813 19.021 5.95519C19.021 5.58919 18.8756 5.23818 18.6168 4.97938C18.358 4.72058 18.007 4.57519 17.641 4.57519ZM22.931 7.35819C22.9086 6.40403 22.7299 5.46 22.402 4.56369C22.1096 3.79679 21.6545 3.10236 21.068 2.52819C20.4985 1.93873 19.8025 1.48649 19.0325 1.20569C18.1386 0.867776 17.1935 0.684983 16.238 0.665191C15.019 0.596191 14.628 0.596191 11.5 0.596191C8.372 0.596191 7.981 0.596191 6.762 0.665191C5.80653 0.684983 4.86144 0.867776 3.9675 1.20569C3.19893 1.48934 2.50347 1.94119 1.932 2.52819C1.34254 3.09765 0.890303 3.7937 0.6095 4.56369C0.271585 5.45764 0.0887915 6.40272 0.0689999 7.35819C-6.42613e-08 8.57719 0 8.96819 0 12.0962C0 15.2242 -6.42613e-08 15.6152 0.0689999 16.8342C0.0887915 17.7897 0.271585 18.7347 0.6095 19.6287C0.890303 20.3987 1.34254 21.0947 1.932 21.6642C2.50347 22.2512 3.19893 22.703 3.9675 22.9867C4.86144 23.3246 5.80653 23.5074 6.762 23.5272C7.981 23.5962 8.372 23.5962 11.5 23.5962C14.628 23.5962 15.019 23.5962 16.238 23.5272C17.1935 23.5074 18.1386 23.3246 19.0325 22.9867C19.8025 22.7059 20.4985 22.2537 21.068 21.6642C21.6571 21.0922 22.1126 20.3971 22.402 19.6287C22.7299 18.7324 22.9086 17.7883 22.931 16.8342C22.931 15.6152 23 15.2242 23 12.0962C23 8.96819 23 8.57719 22.931 7.35819ZM20.861 16.6962C20.8526 17.4262 20.7204 18.1495 20.47 18.8352C20.2864 19.3357 19.9915 19.7879 19.6075 20.1577C19.2345 20.5378 18.7832 20.8321 18.285 21.0202C17.5993 21.2706 16.876 21.4028 16.146 21.4112C14.996 21.4687 14.5705 21.4802 11.546 21.4802C8.5215 21.4802 8.096 21.4802 6.946 21.4112C6.18802 21.4254 5.43328 21.3087 4.715 21.0662C4.23865 20.8685 3.80806 20.5749 3.45 20.2037C3.0683 19.8343 2.77707 19.3817 2.599 18.8812C2.31823 18.1856 2.16251 17.4459 2.139 16.6962C2.139 15.5462 2.07 15.1207 2.07 12.0962C2.07 9.07169 2.07 8.64619 2.139 7.49619C2.14415 6.74991 2.28039 6.01033 2.5415 5.31119C2.74395 4.82579 3.0547 4.3931 3.45 4.04619C3.79939 3.65078 4.23118 3.33675 4.715 3.12619C5.41598 2.87324 6.1548 2.74103 6.9 2.73519C8.05 2.73519 8.4755 2.66619 11.5 2.66619C14.5245 2.66619 14.95 2.66619 16.1 2.73519C16.83 2.74356 17.5533 2.87577 18.239 3.12619C18.7616 3.32014 19.2306 3.63547 19.6075 4.04619C19.9844 4.39945 20.2788 4.83133 20.47 5.31119C20.7256 6.01147 20.8579 6.75074 20.861 7.49619C20.9185 8.64619 20.93 9.07169 20.93 12.0962C20.93 15.1207 20.9185 15.5462 20.861 16.6962ZM11.5 6.19669C10.3337 6.19896 9.19421 6.5469 8.22555 7.19652C7.2569 7.84615 6.50254 8.76832 6.05778 9.84651C5.61302 10.9247 5.49783 12.1105 5.72676 13.2542C5.95569 14.3978 6.51847 15.4479 7.34399 16.2718C8.1695 17.0957 9.22071 17.6565 10.3648 17.8832C11.5089 18.1099 12.6945 17.9924 13.7718 17.5455C14.8491 17.0987 15.7698 16.3425 16.4175 15.3726C17.0653 14.4027 17.411 13.2625 17.411 12.0962C17.4125 11.3201 17.2606 10.5513 16.9639 9.83409C16.6673 9.11689 16.2317 8.46542 15.6824 7.91715C15.1331 7.36888 14.4807 6.93462 13.763 6.63936C13.0452 6.3441 12.2761 6.19366 11.5 6.19669ZM11.5 15.9257C10.7426 15.9257 10.0022 15.7011 9.37244 15.2803C8.74269 14.8595 8.25185 14.2614 7.962 13.5617C7.67216 12.8619 7.59632 12.0919 7.74408 11.3491C7.89184 10.6062 8.25657 9.92389 8.79213 9.38833C9.3277 8.85276 10.0101 8.48804 10.7529 8.34027C11.4958 8.19251 12.2657 8.26835 12.9655 8.55819C13.6652 8.84804 14.2633 9.33888 14.6841 9.96863C15.1049 10.5984 15.3295 11.3388 15.3295 12.0962C15.3295 12.5991 15.2304 13.0971 15.038 13.5617C14.8455 14.0263 14.5635 14.4485 14.2079 14.8041C13.8523 15.1597 13.4301 15.4417 12.9655 15.6342C12.5009 15.8266 12.0029 15.9257 11.5 15.9257Z" fill="white"/>
</svg>
