<svg width="56" height="57" viewBox="0 0 56 57" fill="none" xmlns="http://www.w3.org/2000/svg">
<g id="Frame">
<rect x="0.5" y="1" width="55" height="55" rx="7.5" fill="#00474D"/>
<rect x="0.5" y="1" width="55" height="55" rx="7.5" stroke="#008E97"/>
<g id="Group">
<path id="Vector" d="M34.641 20.5752C34.3681 20.5752 34.1013 20.6561 33.8743 20.8078C33.6474 20.9594 33.4705 21.1749 33.366 21.4271C33.2616 21.6793 33.2343 21.9567 33.2875 22.2244C33.3408 22.4921 33.4722 22.738 33.6652 22.931C33.8582 23.124 34.1041 23.2554 34.3718 23.3087C34.6395 23.3619 34.9169 23.3346 35.1691 23.2301C35.4213 23.1257 35.6368 22.9488 35.7884 22.7219C35.9401 22.4949 36.021 22.2281 36.021 21.9552C36.021 21.5892 35.8756 21.2382 35.6168 20.9794C35.358 20.7206 35.007 20.5752 34.641 20.5752ZM39.931 23.3582C39.9086 22.404 39.7299 21.46 39.402 20.5637C39.1096 19.7968 38.6545 19.1024 38.068 18.5282C37.4985 17.9387 36.8025 17.4865 36.0325 17.2057C35.1386 16.8678 34.1935 16.685 33.238 16.6652C32.019 16.5962 31.628 16.5962 28.5 16.5962C25.372 16.5962 24.981 16.5962 23.762 16.6652C22.8065 16.685 21.8614 16.8678 20.9675 17.2057C20.1989 17.4893 19.5035 17.9412 18.932 18.5282C18.3425 19.0976 17.8903 19.7937 17.6095 20.5637C17.2716 21.4576 17.0888 22.4027 17.069 23.3582C17 24.5772 17 24.9682 17 28.0962C17 31.2242 17 31.6152 17.069 32.8342C17.0888 33.7897 17.2716 34.7347 17.6095 35.6287C17.8903 36.3987 18.3425 37.0947 18.932 37.6642C19.5035 38.2512 20.1989 38.703 20.9675 38.9867C21.8614 39.3246 22.8065 39.5074 23.762 39.5272C24.981 39.5962 25.372 39.5962 28.5 39.5962C31.628 39.5962 32.019 39.5962 33.238 39.5272C34.1935 39.5074 35.1386 39.3246 36.0325 38.9867C36.8025 38.7059 37.4985 38.2537 38.068 37.6642C38.6571 37.0922 39.1126 36.3971 39.402 35.6287C39.7299 34.7324 39.9086 33.7883 39.931 32.8342C39.931 31.6152 40 31.2242 40 28.0962C40 24.9682 40 24.5772 39.931 23.3582ZM37.861 32.6962C37.8526 33.4262 37.7204 34.1495 37.47 34.8352C37.2864 35.3357 36.9915 35.7879 36.6075 36.1577C36.2345 36.5378 35.7832 36.8321 35.285 37.0202C34.5993 37.2706 33.876 37.4028 33.146 37.4112C31.996 37.4687 31.5705 37.4802 28.546 37.4802C25.5215 37.4802 25.096 37.4802 23.946 37.4112C23.188 37.4254 22.4333 37.3087 21.715 37.0662C21.2386 36.8685 20.8081 36.5749 20.45 36.2037C20.0683 35.8343 19.7771 35.3817 19.599 34.8812C19.3182 34.1856 19.1625 33.4459 19.139 32.6962C19.139 31.5462 19.07 31.1207 19.07 28.0962C19.07 25.0717 19.07 24.6462 19.139 23.4962C19.1442 22.7499 19.2804 22.0103 19.5415 21.3112C19.744 20.8258 20.0547 20.3931 20.45 20.0462C20.7994 19.6508 21.2312 19.3368 21.715 19.1262C22.416 18.8732 23.1548 18.741 23.9 18.7352C25.05 18.7352 25.4755 18.6662 28.5 18.6662C31.5245 18.6662 31.95 18.6662 33.1 18.7352C33.83 18.7436 34.5533 18.8758 35.239 19.1262C35.7616 19.3201 36.2306 19.6355 36.6075 20.0462C36.9844 20.3994 37.2788 20.8313 37.47 21.3112C37.7256 22.0115 37.8579 22.7507 37.861 23.4962C37.9185 24.6462 37.93 25.0717 37.93 28.0962C37.93 31.1207 37.9185 31.5462 37.861 32.6962ZM28.5 22.1967C27.3337 22.199 26.1942 22.5469 25.2256 23.1965C24.2569 23.8461 23.5025 24.7683 23.0578 25.8465C22.613 26.9247 22.4978 28.1105 22.7268 29.2542C22.9557 30.3978 23.5185 31.4479 24.344 32.2718C25.1695 33.0957 26.2207 33.6565 27.3648 33.8832C28.5089 34.1099 29.6945 33.9924 30.7718 33.5455C31.8491 33.0987 32.7698 32.3425 33.4175 31.3726C34.0653 30.4027 34.411 29.2625 34.411 28.0962C34.4125 27.3201 34.2606 26.5513 33.9639 25.8341C33.6673 25.1169 33.2317 24.4654 32.6824 23.9171C32.1331 23.3689 31.4807 22.9346 30.763 22.6394C30.0452 22.3441 29.2761 22.1937 28.5 22.1967ZM28.5 31.9257C27.7426 31.9257 27.0022 31.7011 26.3724 31.2803C25.7427 30.8595 25.2518 30.2614 24.962 29.5617C24.6722 28.8619 24.5963 28.0919 24.7441 27.3491C24.8918 26.6062 25.2566 25.9239 25.7921 25.3883C26.3277 24.8528 27.0101 24.488 27.7529 24.3403C28.4958 24.1925 29.2657 24.2683 29.9655 24.5582C30.6652 24.848 31.2633 25.3389 31.6841 25.9686C32.1049 26.5984 32.3295 27.3388 32.3295 28.0962C32.3295 28.5991 32.2304 29.0971 32.038 29.5617C31.8455 30.0263 31.5635 30.4485 31.2079 30.8041C30.8523 31.1597 30.4301 31.4417 29.9655 31.6342C29.5009 31.8266 29.0029 31.9257 28.5 31.9257Z" fill="white"/>
</g>
</g>
</svg>
