<svg width="56" height="57" viewBox="0 0 56 57" fill="none" xmlns="http://www.w3.org/2000/svg">
<g id="Frame">
<rect x="0.5" y="1" width="55" height="55" rx="7.5" fill="#00474D"/>
<rect x="0.5" y="1" width="55" height="55" rx="7.5" stroke="#008E97"/>
<g id="Group">
<g id="Group_2">
<path id="Vector" fill-rule="evenodd" clip-rule="evenodd" d="M28.3468 24.3242V26.5869C28.8206 25.8651 29.4737 25.2787 30.2422 24.8851C31.0107 24.4915 31.8682 24.3042 32.7308 24.3415C37.3375 24.3415 38.3335 27.2215 38.3335 30.9682V38.5962H34.0668V31.8335C34.0668 30.2202 33.7415 28.1455 31.2295 28.1455C28.7935 28.1455 28.3775 29.9015 28.3775 31.7135V38.5962H24.1241V24.3242H28.3468ZM21.2668 20.7375C21.2663 21.1602 21.141 21.5733 20.9066 21.9251C20.6723 22.2768 20.3393 22.5516 19.9495 22.7149C19.5598 22.8768 19.1307 22.9192 18.7168 22.8366C18.303 22.7539 17.9231 22.5501 17.6255 22.2509C17.3273 21.9515 17.1243 21.5706 17.042 21.1561C16.9597 20.7417 17.0018 20.3122 17.1629 19.9216C17.3241 19.531 17.5972 19.1967 17.9478 18.9609C18.2984 18.7251 18.7109 18.5982 19.1335 18.5962C19.4143 18.5962 19.6923 18.6516 19.9517 18.7593C20.211 18.8671 20.4466 19.0249 20.6448 19.2239C20.843 19.4228 21 19.6589 21.1067 19.9187C21.2134 20.1784 21.2678 20.4567 21.2668 20.7375Z" fill="white"/>
<path id="Vector_2" d="M21.2667 24.3418H17V38.5965H21.2667V24.3418Z" fill="white"/>
</g>
</g>
</g>
</svg>
