<svg width="22" height="21" viewBox="0 0 22 21" fill="none" xmlns="http://www.w3.org/2000/svg">
<path fill-rule="evenodd" clip-rule="evenodd" d="M11.3468 6.32419V8.58686C11.8206 7.86509 12.4737 7.27872 13.2422 6.88514C14.0107 6.49155 14.8682 6.30423 15.7308 6.34153C20.3375 6.34153 21.3335 9.22153 21.3335 12.9682V20.5962H17.0668V13.8335C17.0668 12.2202 16.7415 10.1455 14.2295 10.1455C11.7935 10.1455 11.3775 11.9015 11.3775 13.7135V20.5962H7.12412V6.32419H11.3468ZM4.26679 2.73752C4.26626 3.1602 4.14097 3.57331 3.90663 3.92506C3.67228 4.27682 3.33931 4.55157 2.94946 4.71486C2.55976 4.87683 2.13068 4.9192 1.71683 4.83658C1.30298 4.75395 0.923075 4.55006 0.625455 4.25086C0.327277 3.95147 0.124275 3.5706 0.0419785 3.15615C-0.0403179 2.74169 0.00176565 2.31216 0.162936 1.92156C0.324107 1.53096 0.597169 1.19673 0.947785 0.96091C1.2984 0.725086 1.71092 0.598195 2.13346 0.596191C2.41428 0.596189 2.69235 0.651634 2.9517 0.759343C3.21105 0.867053 3.44658 1.02491 3.64479 1.22386C3.84299 1.4228 3.99996 1.65892 4.1067 1.91868C4.21344 2.17843 4.26784 2.4567 4.26679 2.73752Z" fill="white"/>
<path d="M4.26667 6.3418H0V20.5965H4.26667V6.3418Z" fill="white"/>
</svg>
