<svg xmlns="http://www.w3.org/2000/svg" width="32" height="32" viewBox="0 0 32 32" fill="none">
  <path d="M28 15.914C28 20.325 24.411 23.914 20 23.914H7L9.5 26.414L8.086 27.828L4.586 24.328C4.2113 23.9528 4.00084 23.4443 4.00084 22.914C4.00084 22.3838 4.2113 21.8752 4.586 21.5L8.086 18L9.5 19.414L7 21.914H20C23.309 21.914 26 19.223 26 15.914H28ZM12 9.91403H25L22.5 12.414L23.914 13.828L27.414 10.328C28.194 9.54903 28.194 8.27903 27.414 7.50003L23.914 4.00003L22.5 5.41403L25 7.91403H12C7.589 7.91403 4 11.503 4 15.914H6C6 12.605 8.691 9.91403 12 9.91403Z" fill="#00B6BF"/>
</svg>