<svg width="16" height="16" viewBox="0 0 16 16" fill="none" xmlns="http://www.w3.org/2000/svg">
<g id="clarity:star-solid">
<path id="Vector" d="M14.6225 7.34957C14.7795 7.22704 14.8959 7.0561 14.9555 6.86073C15.0151 6.66536 15.0148 6.45535 14.9547 6.26014C14.8947 6.06494 14.7778 5.89433 14.6205 5.77225C14.4632 5.65016 14.2734 5.58271 14.0777 5.57936L10.2765 5.42889C10.2578 5.42754 10.2399 5.42056 10.2249 5.40878C10.2099 5.397 10.1985 5.38093 10.192 5.36251L8.8785 1.64509C8.8125 1.45596 8.69263 1.29265 8.53513 1.17726C8.37762 1.06188 8.19007 1 7.99789 1C7.8057 1 7.61816 1.06188 7.46065 1.17726C7.30314 1.29265 7.18327 1.45596 7.11728 1.64509L5.80798 5.37579C5.80151 5.39421 5.79009 5.41028 5.7751 5.42206C5.76012 5.43383 5.7422 5.44082 5.72351 5.44217L1.92232 5.59264C1.7266 5.59599 1.53679 5.66343 1.3795 5.78552C1.22222 5.90761 1.10534 6.07822 1.04526 6.27342C0.985178 6.46862 0.984909 6.67863 1.04449 6.874C1.10407 7.06938 1.22051 7.24031 1.37748 7.36284L4.3593 9.819C4.37423 9.8313 4.38538 9.84792 4.39138 9.8668C4.39739 9.88568 4.39798 9.90598 4.39309 9.92521L3.36677 13.7356C3.31359 13.9296 3.31874 14.1361 3.38153 14.327C3.44431 14.5178 3.56169 14.6838 3.71768 14.8022C3.87368 14.9207 4.06072 14.986 4.25336 14.9891C4.446 14.9923 4.63489 14.9332 4.79433 14.8198L7.94509 12.6071C7.96061 12.5958 7.97903 12.5898 7.99789 12.5898C8.01675 12.5898 8.03516 12.5958 8.05068 12.6071L11.2014 14.8198C11.3587 14.937 11.5469 15 11.74 15C11.933 15 12.1212 14.937 12.2785 14.8198C12.4345 14.7025 12.552 14.5373 12.6148 14.3471C12.6775 14.1569 12.6825 13.951 12.629 13.7577L11.5942 9.93406C11.5888 9.91487 11.5891 9.89437 11.5951 9.87536C11.6012 9.85635 11.6126 9.83976 11.628 9.82785L14.6225 7.34957Z" fill="#F3CF12"/>
</g>
</svg>
