<svg width="32" height="32" viewBox="0 0 32 32" fill="none" xmlns="http://www.w3.org/2000/svg">
<g id="Frame">
<g id="Group">
<path id="Vector" d="M20.997 22.0015C20.997 21.206 20.681 20.4431 20.1185 19.8806C19.556 19.3181 18.7931 19.0021 17.9976 19.0021C17.2022 19.0021 16.4393 19.3181 15.8768 19.8806C15.3143 20.4431 14.9983 21.206 14.9983 22.0015H16.9979C16.9979 21.7363 17.1032 21.482 17.2907 21.2945C17.4782 21.107 17.7325 21.0017 17.9976 21.0017C18.2628 21.0017 18.5171 21.107 18.7046 21.2945C18.8921 21.482 18.9974 21.7363 18.9974 22.0015C18.9974 22.5014 18.1476 23.1392 17.3978 23.7011C16.273 24.5449 14.9983 25.5007 14.9983 27.0004V28.0002H20.997V26.0006H17.7077C17.9786 25.7647 18.2966 25.5267 18.5975 25.3008C19.7223 24.457 20.997 23.5012 20.997 22.0015ZM25.9959 23.0013H23.9963V19.0021H21.9968V23.0013C21.9968 23.5316 22.2074 24.0402 22.5824 24.4152C22.9574 24.7902 23.466 25.0008 23.9963 25.0008H25.9959V28.0002H27.9955V19.0021H25.9959V23.0013ZM16.9979 10.0041H14.9983V15.003H10.9992V17.0026H16.9979V10.0041Z" fill="#00B6BF"/>
<path id="Vector_2" d="M25.996 6.0049V9.37816C24.9226 7.75472 23.4701 6.41693 21.7641 5.48027C20.0581 4.54362 18.1498 4.03625 16.2038 4.00197C14.2579 3.96769 12.3329 4.40752 10.5949 5.28351C8.85696 6.15949 7.35832 7.44529 6.22838 9.02992C5.09843 10.6145 4.37112 12.4504 4.10925 14.3789C3.84738 16.3074 4.05882 18.2707 4.7253 20.0993C5.39179 21.9278 6.49329 23.5667 7.93473 24.8744C9.37616 26.1821 11.1142 27.1193 12.9988 27.6052V25.5396C11.4445 25.0562 10.0317 24.2005 8.88318 23.0469C7.73468 21.8933 6.88523 20.4767 6.40862 18.9203C5.93201 17.3638 5.84266 15.7145 6.14833 14.1156C6.45399 12.5168 7.14543 11.0167 8.16257 9.74583C9.17972 8.47492 10.4918 7.4716 11.9848 6.82302C13.4778 6.17444 15.1067 5.90023 16.7297 6.0242C18.3528 6.14818 19.9211 6.66659 21.2983 7.5344C22.6755 8.40221 23.82 9.59317 24.6323 11.0038H20.9971V13.0034H25.996C26.5263 13.0034 27.0349 12.7927 27.4099 12.4177C27.7849 12.0427 27.9956 11.5341 27.9956 11.0038V6.0049H25.996Z" fill="#00B6BF"/>
</g>
</g>
</svg>
