<svg width="23" height="24" viewBox="0 0 23 24" fill="none" xmlns="http://www.w3.org/2000/svg">
<path d="M19.5499 3.94275C18.4956 2.87777 17.2398 2.03337 15.8557 1.45882C14.4717 0.884259 12.987 0.591039 11.4885 0.59626C5.20948 0.59626 0.0919999 5.71374 0.0919999 11.9927C0.0919999 14.0052 0.620998 15.9602 1.61 17.6852L0 23.5962L6.03748 22.0092C7.70498 22.9177 9.57947 23.4007 11.4885 23.4007C17.7674 23.4007 22.8849 18.2832 22.8849 12.0042C22.8849 8.95673 21.7004 6.09324 19.5499 3.94275ZM11.4885 21.4687C9.78647 21.4687 8.11898 21.0087 6.65848 20.1462L6.31348 19.9392L2.72549 20.8822L3.67999 17.3862L3.44999 17.0297C2.5044 15.5197 2.00231 13.7744 2.00099 11.9927C2.00099 6.77174 6.25598 2.51675 11.477 2.51675C14.007 2.51675 16.3875 3.50575 18.1699 5.29975C19.0525 6.1783 19.752 7.2233 20.2277 8.37418C20.7035 9.52505 20.9461 10.7589 20.9414 12.0042C20.9644 17.2252 16.7094 21.4687 11.4885 21.4687ZM16.6864 14.3847C16.3989 14.2467 14.996 13.5567 14.743 13.4532C14.4785 13.3612 14.2945 13.3152 14.099 13.5912C13.9035 13.8787 13.363 14.5227 13.202 14.7067C13.041 14.9022 12.8685 14.9252 12.581 14.7757C12.2935 14.6377 11.3735 14.3272 10.2925 13.3612C9.44147 12.6022 8.87797 11.6707 8.70547 11.3832C8.54447 11.0957 8.68247 10.9462 8.83197 10.7967C8.95847 10.6702 9.11947 10.4632 9.25747 10.3022C9.39547 10.1412 9.45297 10.0147 9.54497 9.83073C9.63697 9.63523 9.59097 9.47423 9.52197 9.33624C9.45297 9.19824 8.87797 7.79524 8.64797 7.22024C8.41797 6.66824 8.17648 6.73724 8.00398 6.72574H7.45198C7.25648 6.72574 6.95748 6.79474 6.69298 7.08224C6.43998 7.36974 5.70398 8.05974 5.70398 9.46273C5.70398 10.8657 6.72748 12.2227 6.86548 12.4067C7.00348 12.6022 8.87797 15.4772 11.73 16.7077C12.4085 17.0067 12.9375 17.1792 13.3515 17.3057C14.03 17.5242 14.651 17.4897 15.1455 17.4207C15.6975 17.3402 16.8359 16.7307 17.0659 16.0637C17.3074 15.3967 17.3074 14.8332 17.2269 14.7067C17.1464 14.5802 16.9739 14.5227 16.6864 14.3847Z" fill="#F5F5F5"/>
</svg>
