<svg width="56" height="57" viewBox="0 0 56 57" fill="none" xmlns="http://www.w3.org/2000/svg">
<g id="Frame">
<rect x="0.5" y="1" width="55" height="55" rx="7.5" fill="#00474D"/>
<rect x="0.5" y="1" width="55" height="55" rx="7.5" stroke="#008E97"/>
<g id="Group">
<path id="Vector" d="M36.5499 19.9427C35.4956 18.8778 34.2398 18.0334 32.8557 17.4588C31.4717 16.8843 29.987 16.591 28.4885 16.5963C22.2095 16.5963 17.092 21.7137 17.092 27.9927C17.092 30.0052 17.621 31.9602 18.61 33.6852L17 39.5962L23.0375 38.0092C24.705 38.9177 26.5795 39.4007 28.4885 39.4007C34.7674 39.4007 39.8849 34.2832 39.8849 28.0042C39.8849 24.9567 38.7004 22.0932 36.5499 19.9427ZM28.4885 37.4687C26.7865 37.4687 25.119 37.0087 23.6585 36.1462L23.3135 35.9392L19.7255 36.8822L20.68 33.3862L20.45 33.0297C19.5044 31.5197 19.0023 29.7744 19.001 27.9927C19.001 22.7717 23.256 18.5168 28.477 18.5168C31.007 18.5168 33.3875 19.5058 35.1699 21.2997C36.0525 22.1783 36.752 23.2233 37.2277 24.3742C37.7035 25.525 37.9461 26.7589 37.9414 28.0042C37.9644 33.2252 33.7094 37.4687 28.4885 37.4687ZM33.6864 30.3847C33.3989 30.2467 31.996 29.5567 31.743 29.4532C31.4785 29.3612 31.2945 29.3152 31.099 29.5912C30.9035 29.8787 30.363 30.5227 30.202 30.7067C30.041 30.9022 29.8685 30.9252 29.581 30.7757C29.2935 30.6377 28.3735 30.3272 27.2925 29.3612C26.4415 28.6022 25.878 27.6707 25.7055 27.3832C25.5445 27.0957 25.6825 26.9462 25.832 26.7967C25.9585 26.6702 26.1195 26.4632 26.2575 26.3022C26.3955 26.1412 26.453 26.0147 26.545 25.8307C26.637 25.6352 26.591 25.4742 26.522 25.3362C26.453 25.1982 25.878 23.7952 25.648 23.2202C25.418 22.6682 25.1765 22.7372 25.004 22.7257H24.452C24.2565 22.7257 23.9575 22.7947 23.693 23.0822C23.44 23.3697 22.704 24.0597 22.704 25.4627C22.704 26.8657 23.7275 28.2227 23.8655 28.4067C24.0035 28.6022 25.878 31.4772 28.73 32.7077C29.4085 33.0067 29.9375 33.1792 30.3515 33.3057C31.03 33.5242 31.651 33.4897 32.1455 33.4207C32.6975 33.3402 33.8359 32.7307 34.0659 32.0637C34.3074 31.3967 34.3074 30.8332 34.2269 30.7067C34.1464 30.5802 33.9739 30.5227 33.6864 30.3847Z" fill="#F5F5F5"/>
</g>
</g>
</svg>
